<?xml version="1.0" standalone="no"?>
<!DOCTYPE svg PUBLIC "-//W3C//DTD SVG 1.1//EN" "http://www.w3.org/Graphics/SVG/1.1/DTD/svg11.dtd" >
<svg xmlns="http://www.w3.org/2000/svg" version="1.1">
<metadata></metadata>
<defs>
<font id="quicksandlight" horiz-adv-x="1218" >
<font-face units-per-em="2048" ascent="1638" descent="-410" />
<missing-glyph horiz-adv-x="552" />
<glyph unicode="&#xfb01;" horiz-adv-x="1101" d="M57 971q0 18 11.5 28.5t27.5 10.5h164v250q0 121 64.5 183t164.5 62q51 0 97.5 -13t46.5 -44q0 -16 -12.5 -28.5t-26.5 -12.5q-16 0 -43 10q-47 14 -70 15q-63 0 -101 -43t-38 -129v-250h242q16 0 27.5 -11.5t11.5 -27.5t-11.5 -27.5t-27.5 -11.5h-242v-891 q0 -16 -12.5 -28.5t-28.5 -12.5q-18 0 -29.5 12.5t-11.5 28.5v891h-164q-14 0 -26.5 12t-12.5 27zM819 1260v16q0 29 20.5 47t53.5 18q29 0 48.5 -18t19.5 -47v-16q0 -29 -19.5 -47.5t-50.5 -18.5q-33 0 -52.5 18.5t-19.5 47.5zM850 41v973q0 16 12.5 28.5t28.5 12.5 q18 0 29.5 -12.5t11.5 -28.5v-973q0 -16 -12.5 -28.5t-28.5 -12.5q-18 0 -29.5 12.5t-11.5 28.5z" />
<glyph unicode="&#xfb02;" horiz-adv-x="1122" d="M57 971q0 18 11.5 28.5t27.5 10.5h164v250q0 121 64.5 183t164.5 62q51 0 97.5 -13t46.5 -44q0 -16 -12.5 -28.5t-26.5 -12.5q-16 0 -43 10q-47 14 -70 15q-63 0 -101 -43t-38 -129v-250h242q16 0 27.5 -11.5t11.5 -27.5t-11.5 -27.5t-27.5 -11.5h-242v-891 q0 -16 -12.5 -28.5t-28.5 -12.5q-18 0 -29.5 12.5t-11.5 28.5v891h-164q-14 0 -26.5 12t-12.5 27zM860 41v1434q0 16 12.5 28.5t28.5 12.5q18 0 29.5 -12.5t11.5 -28.5v-1434q0 -16 -12 -28.5t-29 -12.5q-18 0 -29.5 12.5t-11.5 28.5z" />
<glyph horiz-adv-x="0" />
<glyph unicode="&#xd;" horiz-adv-x="552" />
<glyph horiz-adv-x="0" />
<glyph horiz-adv-x="0" />
<glyph unicode=" "  horiz-adv-x="552" />
<glyph unicode="&#x09;" horiz-adv-x="552" />
<glyph unicode="&#xa0;" horiz-adv-x="552" />
<glyph unicode="!" horiz-adv-x="323" d="M102 63v48q0 29 14.5 46t41.5 17h8q27 0 41 -17.5t14 -45.5v-48q0 -29 -14 -46t-41 -17h-8q-27 0 -41.5 17.5t-14.5 45.5zM121 1370q0 31 8 47.5t33 16.5t33 -16.5t8 -47.5l-10 -954q-2 -33 -31 -33t-31 33z" />
<glyph unicode="&#x22;" horiz-adv-x="751" d="M96 956l60 439q6 39 45 39h67q20 0 21 -23q0 -10 -2 -16l-127 -447q-8 -35 -47 -35q-23 0 -17 43zM465 956l59 439q6 39 45 39h68q29 -2 18 -39l-127 -447q-8 -35 -47 -35q-23 0 -16 43z" />
<glyph unicode="#" horiz-adv-x="1312" d="M41 434q0 20 14.5 32.5t36.5 12.5h213l84 484h-213q-23 0 -38 14t-15 37q0 20 14.5 32.5t36.5 12.5h232l57 334q4 18 16.5 29.5t30.5 11.5q25 0 38 -18.5t9 -45.5l-53 -311h424l57 334q4 18 16.5 29.5t30.5 11.5q25 0 38 -18.5t9 -45.5l-53 -311h195q22 0 36.5 -14.5 t14.5 -36.5q0 -20 -14.5 -32.5t-36.5 -12.5h-211l-84 -484h213q23 0 37 -14t14 -37q0 -20 -14.5 -32.5t-36.5 -12.5h-230l-59 -342q-4 -18 -16.5 -29.5t-30.5 -11.5q-25 0 -38 18.5t-9 47.5l55 317h-424l-59 -342q-4 -18 -16.5 -29.5t-30.5 -11.5q-25 0 -38.5 18.5 t-9.5 47.5l56 317h-197q-20 0 -35.5 15.5t-15.5 35.5zM403 479h424l84 484h-424z" />
<glyph unicode="$" horiz-adv-x="1126" d="M72 225q0 16 14 31.5t31 15.5q18 0 35 -18q74 -86 172 -135t208 -56v629q-129 49 -207.5 91t-132 118t-53.5 195q0 141 106.5 241.5t286.5 114.5v186q0 16 11.5 28.5t29.5 12.5t29.5 -12t11.5 -29v-184q115 -4 216.5 -48t160.5 -120q20 -29 21 -43q0 -16 -15.5 -29.5 t-33.5 -13.5q-16 0 -27 12q-53 70 -137 112t-185 48v-610q133 -47 215 -91t137.5 -125t55.5 -212q0 -90 -50 -168t-142.5 -128t-215.5 -56v-269q0 -16 -11 -28.5t-30 -12.5q-18 0 -29.5 12.5t-11.5 28.5v267q-135 8 -240.5 60t-207.5 155q-12 12 -12 30zM227 1098 q0 -115 81 -183.5t224 -121.5v577q-135 -14 -220 -86t-85 -186zM614 63q142 11 231 85.5t89 189.5q-2 127 -84 196.5t-236 127.5v-599z" />
<glyph unicode="%" horiz-adv-x="1562" d="M102 1079q0 160 68 265.5t197 105.5q127 0 194.5 -105.5t67.5 -261.5t-68.5 -261t-198.5 -105q-126 0 -193 104.5t-67 257.5zM188 1083q0 -129 46.5 -206.5t132.5 -77.5q90 0 133 76.5t43 203.5q0 131 -47 210t-134 79q-90 0 -132 -78t-42 -207zM283 33q0 12 6 24 l897 1364q12 18 33 19q18 0 29.5 -10.5t11.5 -28.5q0 -12 -7 -25l-897 -1364q-12 -18 -32 -18q-19 0 -30 10t-11 29zM932 346q0 158 68.5 264.5t197.5 106.5q127 0 194.5 -105.5t67.5 -261.5t-68.5 -261t-197.5 -105q-127 0 -194.5 104.5t-67.5 257.5zM1018 350 q0 -129 47 -206.5t133 -77.5q90 0 133 76.5t43 203.5q0 131 -47 210t-133 79q-90 0 -133 -79t-43 -206z" />
<glyph unicode="&#x26;" horiz-adv-x="1370" d="M61 453q0 131 79 245.5t231 169.5q-88 147 -88 265q0 143 98 232t266 89q139 0 232.5 -54t136.5 -138q8 -16 8 -25q0 -12 -12.5 -24.5t-28.5 -12.5q-23 0 -35 19q-47 72 -116.5 112.5t-184.5 40.5q-135 0 -206.5 -65.5t-71.5 -178.5q0 -90 63.5 -204.5t171.5 -235.5 q176 -203 420 -399q78 113 113 282q4 16 15 25.5t28 9.5q18 0 29.5 -13t9.5 -34q-31 -188 -132 -319q133 -102 213 -156q19 -13 19 -33q0 -16 -11.5 -29.5t-29.5 -13.5q-8 0 -25 8q-6 4 -69 52l-146 110q-86 -94 -208.5 -146t-278.5 -52q-141 0 -253 67.5t-174.5 176 t-62.5 229.5zM147 463q0 -104 48.5 -196.5t140.5 -149t215 -56.5q272 0 424 166q-238 186 -438 420q-72 80 -123 156q-133 -41 -200 -133t-67 -207z" />
<glyph unicode="'" horiz-adv-x="382" d="M96 956l60 439q6 39 45 39h67q29 -2 19 -39l-127 -447q-8 -35 -47 -35q-23 0 -17 43z" />
<glyph unicode="(" horiz-adv-x="776" d="M123 524q0 287 140 530.5t394 389.5q10 6 21 6q16 0 26.5 -11.5t10.5 -27.5q0 -23 -21 -35q-150 -80 -261 -215t-169.5 -301t-58.5 -336q0 -172 57 -339t168 -302t264 -211q18 -10 19 -34q0 -37 -35 -37q-11 0 -23 6q-172 78 -291.5 221t-180 323.5t-60.5 372.5z" />
<glyph unicode=")" horiz-adv-x="776" d="M61 -358q0 23 21 34q150 80 261.5 215.5t169.5 301t58 335.5q0 172 -57 339t-167.5 302.5t-264.5 210.5q-18 10 -19 35q0 37 35 37q10 0 23 -6q172 -80 291.5 -222.5t180 -322.5t60.5 -373q0 -287 -141 -533.5t-393 -385.5q-10 -6 -21 -6q-16 0 -26.5 11t-10.5 28z" />
<glyph unicode="*" horiz-adv-x="595" d="M29 1004q0 25 26 36l185 88q6 2 6 6.5t-6 6.5l-185 88q-25 12 -24 39q0 10 6 22q12 18 33 19q14 0 24 -9l168 -114q4 -4 8 -1t2 9l-12 199v4q0 16 12.5 28.5t28.5 12.5t27.5 -13.5t9.5 -31.5l-12 -199q-2 -6 2 -9t8 1l168 114q10 8 24 9q23 0 35 -23q6 -8 6 -20 q0 -23 -26 -37l-185 -88q-6 -2 -6 -6.5t6 -6.5l185 -88q27 -12 26 -36q0 -10 -6 -21q-12 -23 -35 -22q-14 0 -24 8l-168 114q-4 4 -8 1t-2 -9l12 -198v-5q0 -16 -12.5 -28.5t-28.5 -12.5t-27.5 13.5t-9.5 32.5l12 198q2 6 -2 9t-8 -1l-168 -114q-10 -8 -24 -8q-23 0 -35 22 q-6 10 -6 21z" />
<glyph unicode="+" horiz-adv-x="1138" d="M102 500q0 16 12.5 27.5t30.5 11.5h381v395q0 20 12.5 32.5t30.5 12.5q20 0 31.5 -12.5t11.5 -30.5v-397h381q19 0 31 -12.5t12 -30.5q0 -16 -12 -27.5t-31 -11.5h-381v-412q0 -20 -12 -32.5t-31 -12.5q-18 0 -30.5 12.5t-12.5 30.5v414h-381q-18 0 -30.5 12t-12.5 31z " />
<glyph unicode="," horiz-adv-x="342" d="M63 -199q0 18 8.5 24.5t30 12.5t33.5 12q29 14 44.5 45t15.5 64q0 49 -35 49q-31 0 -54 -18q-16 20 -16 41q0 27 27.5 47t62.5 20q43 0 69.5 -26.5t26.5 -69.5q0 -61 -27.5 -115.5t-69.5 -86t-79 -31.5q-14 0 -25.5 8t-11.5 24z" />
<glyph unicode="-" horiz-adv-x="794" d="M123 504q0 16 11 27.5t28 11.5h471q16 0 27.5 -12.5t11.5 -30.5q0 -16 -11.5 -27.5t-27.5 -11.5h-471q-17 0 -28 12t-11 31z" />
<glyph unicode="." horiz-adv-x="323" d="M102 63v48q0 29 14.5 46t41.5 17h8q27 0 41 -17.5t14 -45.5v-48q0 -29 -14 -46t-41 -17h-8q-27 0 -41.5 17.5t-14.5 45.5z" />
<glyph unicode="/" horiz-adv-x="1038" d="M0 -219q0 12 6 24l912 1784q14 27 26 36t33 9q14 0 25.5 -10t11.5 -29q0 -16 -8 -32l-912 -1786q-12 -23 -23.5 -31t-29.5 -8q-21 0 -31 12t-10 31z" />
<glyph unicode="0" horiz-adv-x="1204" d="M123 717q0 209 53 376t160.5 264t265.5 97t265.5 -97t160.5 -264t53 -376t-53 -376t-160.5 -264t-265.5 -97t-265.5 97t-160.5 264t-53 376zM209 717q0 -295 101.5 -473t291.5 -178q191 0 292 178t101 473t-101 473t-292 178q-190 0 -291.5 -178t-101.5 -473z" />
<glyph unicode="1" horiz-adv-x="661" d="M10 1178q0 18 23 34l358 215q10 8 25 9q18 0 29.5 -12.5t11.5 -30.5v-1352q0 -16 -12.5 -28.5t-30.5 -12.5t-30.5 12.5t-12.5 28.5v1274l-299 -178q-6 -4 -17 -4q-18 0 -31.5 15t-13.5 30z" />
<glyph unicode="2" horiz-adv-x="1181" d="M180 1163q0 10 10 37q47 123 155 188.5t245 65.5q207 0 321.5 -108.5t114.5 -286.5q0 -109 -59.5 -223.5t-210.5 -278.5l-418 -475h700q17 0 29 -12.5t12 -28.5q0 -18 -12 -29.5t-29 -11.5h-790q-20 0 -35.5 10t-15.5 33q0 12 10 27l481 536q129 137 188.5 240.5 t59.5 204.5q0 154 -91 237.5t-261 83.5q-113 0 -198 -50t-122 -159q-4 -12 -13 -22.5t-26 -10.5q-14 0 -29.5 10.5t-15.5 22.5z" />
<glyph unicode="3" horiz-adv-x="1062" d="M102 1393q0 18 12.5 29.5t28.5 11.5h709q23 0 33 -15.5t10 -27.5q0 -16 -12 -29l-408 -459q8 2 21 2q114 0 216.5 -51t167 -153.5t64.5 -247.5q0 -137 -66.5 -245t-179 -168t-243.5 -60q-92 0 -175 32.5t-145 98.5q-12 12 -12 28t12 30.5t31 14.5q18 0 37 -20 q90 -98 252 -98q113 0 205 49t145 138t53 200q0 125 -56.5 207.5t-146.5 121.5t-190 39q-20 0 -50 -3t-34 -3q-18 0 -29.5 12.5t-11.5 32.5q0 18 10 29l414 463h-621q-16 0 -28.5 12t-12.5 29z" />
<glyph unicode="4" horiz-adv-x="1034" d="M31 504q0 16 10 26l661 887q12 16 35 17q18 0 29.5 -12.5t11.5 -28.5v-854h156q16 0 28.5 -11.5t12.5 -27.5t-12.5 -27.5t-28.5 -11.5h-156v-420q0 -16 -12 -28.5t-29 -12.5q-18 0 -29.5 12.5t-11.5 28.5v420h-624q-18 0 -29.5 13t-11.5 30zM150 539h546v735z" />
<glyph unicode="5" horiz-adv-x="1103" d="M111 147q0 14 12 31t29 17q16 0 28 -13q121 -98 273 -98q193 0 309.5 111.5t116.5 293.5q0 170 -108.5 274.5t-297.5 104.5q-74 0 -137.5 -21.5t-130.5 -53.5q-41 -18 -45 -19q-18 0 -33.5 14.5t-9.5 34.5l96 576q2 12 14.5 23.5t30.5 11.5h625q16 0 28.5 -12.5 t12.5 -30.5t-12.5 -30.5t-28.5 -12.5h-594l-84 -467q139 68 299 67q129 0 233.5 -57t164 -160.5t59.5 -234.5q0 -147 -62.5 -259t-177.5 -173.5t-268 -61.5q-90 0 -174 28.5t-152 86.5q-16 12 -16 30z" />
<glyph unicode="6" horiz-adv-x="1091" d="M123 475q0 182 80 388t223 376t324 246q12 4 18 4q20 0 32.5 -12.5t12.5 -34.5q0 -25 -29 -37q-117 -51 -228.5 -159.5t-194 -247t-117.5 -277.5q68 84 164 131t204 47q125 0 220.5 -66.5t146.5 -174t51 -226.5t-57.5 -222.5t-157.5 -166.5t-225 -63q-158 0 -262.5 69.5 t-154.5 182t-50 243.5zM207 424q0 -96 45 -179t131 -133.5t203 -50.5q104 0 185 47.5t127 131.5t46 192q0 100 -40 188.5t-117.5 141.5t-188.5 53q-121 0 -210 -53t-135 -142.5t-46 -195.5z" />
<glyph unicode="7" horiz-adv-x="1026" d="M123 1393q0 18 12 29.5t29 11.5h766q35 0 35 -37q0 -12 -4 -21l-572 -1353q-4 -12 -15.5 -19.5t-25.5 -7.5t-28.5 10t-14.5 27q0 8 4 20l549 1299h-694q-16 0 -28.5 11t-12.5 30z" />
<glyph unicode="8" horiz-adv-x="1140" d="M143 367q0 123 68 215t172 139q-86 43 -146.5 133t-60.5 199q0 106 52.5 193t142.5 137.5t198 50.5q106 0 196.5 -50.5t143 -137.5t52.5 -193q0 -111 -59.5 -199t-145.5 -131q104 -45 172.5 -139.5t68.5 -216.5q0 -106 -56 -194.5t-154.5 -140.5t-217.5 -52t-216 51 t-153.5 140t-56.5 196zM229 367q0 -135 94.5 -220.5t245.5 -85.5q154 0 248 85t94 221q0 88 -47 158.5t-126 111.5t-169 41t-168.5 -41t-125 -111.5t-46.5 -158.5zM262 1053q0 -88 43 -157t113.5 -106.5t150.5 -37.5t149.5 37.5t112.5 106.5t43 157q0 133 -84.5 216 t-220.5 83q-137 0 -222 -83t-85 -216z" />
<glyph unicode="9" horiz-adv-x="1136" d="M123 1001q0 119 57.5 222.5t157.5 167t225 63.5q158 0 262.5 -69.5t154.5 -182t50 -244.5q0 -182 -79 -379.5t-222 -359.5t-326 -239q-12 -4 -18 -5q-18 0 -31.5 14.5t-13.5 33.5q0 25 29 36q117 51 228.5 153.5t194 234t117.5 266.5q-66 -82 -163 -128t-205 -46 q-125 0 -220.5 65.5t-146.5 172t-51 224.5zM209 1001q0 -100 39 -187t117.5 -139t189.5 -52q121 0 210 52t135 140t46 195q0 96 -45 179t-131 133t-203 50q-104 0 -185 -47t-127 -131t-46 -193z" />
<glyph unicode=":" horiz-adv-x="323" d="M102 63v48q0 29 14.5 46t41.5 17h8q27 0 41 -17.5t14 -45.5v-48q0 -29 -14 -46t-41 -17h-8q-27 0 -41.5 17.5t-14.5 45.5zM102 934v47q0 29 14.5 46t41.5 17h8q27 0 41 -17t14 -46v-47q0 -29 -14 -46.5t-41 -17.5h-8q-27 0 -41.5 17.5t-14.5 46.5z" />
<glyph unicode=";" horiz-adv-x="342" d="M63 -199q0 18 8.5 24.5t30 12.5t33.5 12q29 14 44.5 45t15.5 64q0 49 -35 49q-31 0 -54 -18q-16 20 -16 41q0 27 27.5 47t62.5 20q43 0 69.5 -26.5t26.5 -69.5q0 -61 -27.5 -115.5t-69.5 -86t-79 -31.5q-14 0 -25.5 8t-11.5 24zM129 934v47q0 29 18.5 46t45.5 17h8 q29 0 46 -17t17 -46v-47q0 -27 -17.5 -45.5t-45.5 -18.5h-8q-27 0 -45.5 18.5t-18.5 45.5z" />
<glyph unicode="&#x3c;" horiz-adv-x="1069" d="M72 492q0 20 12 34.5t39 28.5l719 408q16 10 32 10h5q18 0 29.5 -11.5t11.5 -25.5q0 -33 -33 -49l-719 -400l709 -393q28 -14 38.5 -25.5t10.5 -29.5q0 -16 -11.5 -27.5t-27.5 -11.5t-37 12l-735 416q-25 12 -34 26.5t-9 37.5z" />
<glyph unicode="=" horiz-adv-x="892" d="M102 285q0 16 12.5 27.5t30.5 11.5h603q18 0 30.5 -12.5t12.5 -30.5q0 -16 -12.5 -27.5t-30.5 -11.5h-603q-18 0 -30.5 12t-12.5 31zM102 651q0 16 12.5 27.5t30.5 11.5h603q18 0 30.5 -12t12.5 -31q0 -16 -12.5 -27.5t-30.5 -11.5h-603q-18 0 -30.5 12.5t-12.5 30.5z " />
<glyph unicode="&#x3e;" horiz-adv-x="1087" d="M143 39q0 18 10.5 29.5t39.5 25.5l727 389l-738 404q-33 16 -32 49q0 16 13 27.5t32 9.5q16 0 32 -10l738 -412q26 -14 38.5 -28.5t12.5 -35.5q0 -23 -9.5 -37t-33.5 -26l-754 -412q-20 -12 -37 -12q-16 0 -27.5 11.5t-11.5 27.5z" />
<glyph unicode="?" horiz-adv-x="964" d="M121 1286q0 14 8 25q63 88 163.5 141t213.5 53q110 0 202.5 -51t145.5 -146.5t53 -224.5q0 -94 -52 -186t-141 -154.5t-194 -72.5v-242q0 -16 -11 -28.5t-28 -12.5q-18 0 -29.5 12.5t-9.5 28.5v274q0 16 12.5 28.5t28.5 12.5q94 6 171 53.5t121 123t44 163.5 q0 100 -41 179t-112.5 122t-159.5 43q-92 0 -174 -44t-135 -117q-14 -18 -35 -19q-12 0 -19 4q-23 12 -22 35zM430 63v48q0 29 14.5 46t40.5 17h9q26 0 40.5 -17.5t14.5 -45.5v-48q0 -29 -14.5 -46t-40.5 -17h-9q-27 0 -41 17.5t-14 45.5z" />
<glyph unicode="@" horiz-adv-x="1996" d="M82 422q0 311 145.5 545.5t395 360.5t557.5 126q225 0 387 -86t244.5 -231.5t82.5 -325.5q0 -166 -62.5 -329t-169 -266t-228.5 -103q-86 0 -135.5 43t-49.5 116l2 25l13 100q-74 -133 -187.5 -208.5t-232.5 -75.5q-90 0 -158 46t-104.5 123.5t-36.5 168.5 q0 131 65.5 270t179 231t248.5 92q115 0 191 -61t106 -162l25 156q4 25 14 36t33 11q37 0 37 -39q0 -12 -2 -18l-103 -648q-2 -10 -2 -26q0 -51 29 -78t68 -27q98 0 186 91.5t140 237t52 294.5q0 166 -77.5 295t-221 199.5t-333.5 70.5q-287 0 -518.5 -114.5t-364.5 -331.5 t-133 -508q0 -178 72.5 -331.5t226 -249t385.5 -95.5q133 0 219 24.5t199 75.5q14 8 43 21q12 4 20 4q18 0 27 -21l4 -16q0 -23 -23 -35q-129 -63 -233.5 -97t-255.5 -34q-262 0 -434 106.5t-252 277.5t-80 370zM631 455q0 -121 63.5 -193t153.5 -72q102 0 210.5 74 t179.5 192.5t71 245.5q0 109 -74 187t-195 78t-214 -81t-144 -201t-51 -230z" />
<glyph unicode="A" horiz-adv-x="1329" d="M72 35q-2 8 2 20l551 1356q6 16 15 21.5t24 5.5q31 0 41 -27l550 -1356q2 -6 2 -16q0 -18 -12 -28.5t-31 -10.5q-14 0 -25 7t-15 20l-173 422l3 -5h-687l-165 -417q-10 -27 -37 -27q-18 0 -29.5 10t-13.5 25zM350 526h621l-314 772z" />
<glyph unicode="B" horiz-adv-x="1331" d="M205 41v1352q0 16 12 28.5t29 12.5h551q164 0 262 -94.5t98 -254.5q0 -115 -57.5 -208t-159.5 -127q131 -25 210 -119t79 -244q0 -186 -118 -286.5t-300 -100.5h-565q-16 0 -28.5 12.5t-12.5 28.5zM291 82h510q153 0 247.5 77t94.5 228q0 152 -94.5 228.5t-247.5 76.5 h-510v-610zM291 776h495q127 2 206 83t79 228q0 121 -74.5 193t-210.5 72h-495v-576z" />
<glyph unicode="C" horiz-adv-x="1355" d="M102 717q0 207 96.5 376t260.5 265t358 96q123 0 238.5 -37t210.5 -102q18 -15 18 -33q0 -16 -8 -27q-12 -16 -31 -16q-8 0 -24 8q-190 129 -404 129q-172 0 -316.5 -85t-228.5 -235.5t-84 -338.5t84 -339t228.5 -236t316.5 -85q215 0 402 127q10 8 24 9q20 0 33 -17 q8 -10 8 -24q0 -20 -16 -33q-80 -57 -206 -98t-245 -41q-195 0 -358.5 96t-260 265t-96.5 376z" />
<glyph unicode="D" horiz-adv-x="1474" d="M205 41v1352q0 16 12 28.5t29 12.5h532q197 0 331 -98.5t198.5 -261.5t64.5 -357q0 -203 -64.5 -365t-197.5 -257t-332 -95h-532q-16 0 -28.5 12.5t-12.5 28.5zM291 82h467q266 0 397 175t131 460q0 174 -56 318.5t-174 230.5t-298 86h-467v-1270z" />
<glyph unicode="E" horiz-adv-x="1161" d="M205 41v1352q0 16 12 28.5t29 12.5h772q16 0 28.5 -12.5t12.5 -28.5q0 -18 -12.5 -29.5t-28.5 -11.5h-727v-572h635q16 0 28.5 -12t12.5 -29q0 -18 -12.5 -29.5t-28.5 -11.5h-635v-616h727q16 0 28.5 -12.5t12.5 -28.5q0 -18 -12.5 -29.5t-28.5 -11.5h-772 q-16 0 -28.5 12.5t-12.5 28.5z" />
<glyph unicode="F" horiz-adv-x="1161" d="M205 41v1352q0 16 12 28.5t29 12.5h772q16 0 28.5 -12.5t12.5 -28.5q0 -18 -12.5 -29.5t-28.5 -11.5h-731v-566h639q16 0 28.5 -12t12.5 -29q0 -18 -12.5 -29t-28.5 -11h-639v-664q0 -16 -11.5 -28.5t-29.5 -12.5t-29.5 12.5t-11.5 28.5z" />
<glyph unicode="G" horiz-adv-x="1421" d="M102 717q0 211 95.5 379t262.5 263t378 95q115 0 218 -27.5t185 -83.5q18 -12 19 -34q0 -18 -13.5 -29.5t-25.5 -11.5q-10 0 -27 8q-172 96 -356 96q-188 0 -336 -84t-231 -233.5t-83 -337.5t83 -338t230.5 -234t336.5 -84q94 0 191 30t177 79v455h-368q-16 0 -28.5 12 t-12.5 29q0 18 12 29.5t29 11.5h409q19 0 30 -12.5t11 -28.5v-514q0 -25 -18 -37q-94 -63 -206 -99t-226 -36q-211 0 -378 95t-262.5 263t-95.5 379z" />
<glyph unicode="H" horiz-adv-x="1474" d="M205 43v1348q0 18 12 30.5t31 12.5q18 0 30.5 -12.5t12.5 -30.5v-613h893v613q0 18 12 30.5t31 12.5q18 0 30.5 -12.5t12.5 -30.5v-1348q-2 -18 -14.5 -30.5t-28.5 -12.5q-20 0 -31.5 12.5t-11.5 30.5v653h-893v-653q-2 -18 -14.5 -30.5t-28.5 -12.5q-20 0 -31.5 12.5 t-11.5 30.5z" />
<glyph unicode="I" horiz-adv-x="495" d="M205 43v1348q0 18 12 30.5t31 12.5q18 0 30.5 -12.5t12.5 -30.5v-1348q-2 -18 -14.5 -30.5t-28.5 -12.5q-20 0 -31.5 12.5t-11.5 30.5z" />
<glyph unicode="J" horiz-adv-x="1183" d="M154 285q0 16 12 26.5t29 10.5q27 0 38 -27q39 -104 123 -169t191 -65q158 0 252 94.5t94 252.5v985q0 16 12.5 28.5t32.5 12.5q18 0 29.5 -12.5t11.5 -28.5v-985q0 -127 -54.5 -224.5t-152.5 -150.5t-225 -53q-131 0 -234.5 77.5t-154.5 206.5q-4 12 -4 21z" />
<glyph unicode="K" horiz-adv-x="1396" d="M205 43v1348q0 18 12 30.5t31 12.5q18 0 30.5 -12.5t12.5 -30.5v-807l885 829q12 12 28 12t28.5 -12t12.5 -29q0 -16 -12 -28l-567 -529l612 -766q10 -14 10 -28q0 -23 -15.5 -33t-31.5 -10t-29 14l-614 760l-307 -285v-436q-2 -18 -14.5 -30.5t-28.5 -12.5 q-20 0 -31.5 12.5t-11.5 30.5z" />
<glyph unicode="L" horiz-adv-x="1069" d="M205 41v1352q0 16 12 28.5t31 12.5q18 0 30.5 -12.5t12.5 -28.5v-1311h706q17 0 29 -12.5t12 -28.5q0 -18 -12 -29.5t-29 -11.5h-751q-18 0 -29.5 12.5t-11.5 28.5z" />
<glyph unicode="M" horiz-adv-x="1697" d="M205 41v1352q0 14 11 27.5t28 13.5q27 0 39 -19l567 -844l567 844q16 23 39 19q17 -2 27 -13.5t10 -27.5v-1352q0 -16 -13.5 -28.5t-29.5 -12.5q-18 0 -30.5 12.5t-12.5 28.5v1225l-528 -799q-10 -16 -29 -16q-23 0 -33 16l-530 801v-1227q0 -16 -12.5 -28.5t-28.5 -12.5 q-18 0 -29.5 12.5t-11.5 28.5z" />
<glyph unicode="N" horiz-adv-x="1484" d="M205 35v1358q0 20 11 30.5t26 10.5q18 0 30 -15l930 -1267v1243q0 16 11.5 27.5t27.5 11.5q19 0 29 -11.5t10 -27.5v-1350q0 -23 -12.5 -34t-30.5 -11q-20 0 -33 16l-921 1260v-1241q0 -14 -11.5 -24.5t-27.5 -10.5q-18 0 -28.5 10t-10.5 25z" />
<glyph unicode="O" horiz-adv-x="1572" d="M102 717q0 215 87 383t243 261t354 93q199 0 354.5 -93t242.5 -261t87 -383t-87 -383t-242.5 -261t-354.5 -93t-354.5 93t-242.5 261t-87 383zM188 717q0 -193 76 -342.5t212 -231.5t310 -82t310.5 82t212 231.5t75.5 342.5q0 192 -75.5 341.5t-211.5 231.5t-311 82 q-174 0 -310 -82t-212 -231.5t-76 -341.5z" />
<glyph unicode="P" horiz-adv-x="1216" d="M205 41v1352q0 16 12 28.5t29 12.5h491q174 0 280.5 -108.5t106.5 -283.5q0 -115 -48 -208t-136 -145t-203 -52h-446v-596q0 -16 -13.5 -28.5t-29.5 -12.5q-18 0 -30.5 12.5t-12.5 28.5zM291 719h446q137 0 219 91t82 232t-80.5 225.5t-220.5 84.5h-446v-633z" />
<glyph unicode="Q" horiz-adv-x="1601" d="M102 717q0 215 87 383t243 261t354 93q199 0 354.5 -93t242.5 -261t87 -383q0 -184 -64.5 -334t-182 -250t-271.5 -135l-252 -82q63 -6 117.5 -26.5t130.5 -57.5q98 -47 166 -69.5t158 -22.5q76 0 130 19.5t105 47.5q16 8 39 31q12 12 25.5 20.5t25.5 8.5q17 0 26 -9.5 t9 -25.5q0 -39 -57 -79t-142 -65.5t-161 -25.5q-113 0 -190.5 24.5t-178.5 73.5q-84 43 -145.5 63.5t-141.5 20.5q-29 0 -52 -7t-56 -21q-37 -16 -49 -17q-16 0 -28.5 12.5t-12.5 30.5q0 25 22 35l299 105q-186 10 -330.5 106t-225.5 259t-81 370zM188 717q0 -193 76 -342.5 t212 -231.5t310 -82t310.5 82t212 231.5t75.5 342.5t-75.5 342t-211.5 231t-311 82q-174 0 -310 -82t-212 -231.5t-76 -341.5z" />
<glyph unicode="R" horiz-adv-x="1359" d="M205 41v1352q0 16 12 28.5t29 12.5h540q119 0 211.5 -48.5t143.5 -132.5t51 -190q0 -137 -72.5 -235.5t-189.5 -133.5q98 -31 161.5 -122t63.5 -224q0 -137 17.5 -191.5t52.5 -76.5q22 -14 22 -37q0 -18 -11 -29.5t-28 -11.5q-12 0 -18 4q-55 31 -88 103.5t-33 238.5 q0 168 -90 230.5t-209 62.5h-479v-600q0 -16 -12.5 -28.5t-30.5 -12.5t-30.5 12.5t-12.5 28.5zM291 723h506q129 12 219 102t90 236q0 127 -90 209t-240 82h-485v-629z" />
<glyph unicode="S" horiz-adv-x="1126" d="M72 225q0 16 14 31.5t31 15.5q18 0 35 -18q80 -94 189.5 -143.5t229.5 -49.5q158 0 260.5 76t102.5 201q-2 98 -53.5 161.5t-126 101.5t-203.5 85q-141 53 -220 94t-135.5 117t-56.5 199q0 100 55.5 182t158 129t237.5 47q121 0 229.5 -44t171.5 -124q20 -29 21 -43 q0 -16 -15.5 -29.5t-33.5 -13.5q-16 0 -27 12q-57 74 -147.5 117t-198.5 43q-156 0 -259.5 -73.5t-103.5 -200.5q0 -88 50.5 -149.5t126 -99.5t188.5 -79q143 -51 227 -94t143.5 -125t59.5 -217q0 -94 -55.5 -176t-158.5 -130t-237 -48q-151 0 -263.5 52t-223.5 163 q-12 12 -12 30z" />
<glyph unicode="T" horiz-adv-x="1220" d="M72 1395q0 16 12 27.5t29 11.5h995q16 0 28.5 -11.5t12.5 -27.5q0 -18 -11.5 -28.5t-29.5 -10.5h-457v-1315q0 -16 -12 -28.5t-29 -12.5q-18 0 -29.5 12.5t-11.5 28.5v1315h-456q-16 0 -28.5 11t-12.5 28z" />
<glyph unicode="U" horiz-adv-x="1464" d="M205 508v885q0 18 12 29.5t31 11.5q18 0 30.5 -12.5t12.5 -28.5v-885q0 -121 59.5 -223.5t160.5 -163t222 -60.5t222.5 60.5t162 163t60.5 223.5v885q0 16 11 28.5t30 12.5q18 0 29.5 -12.5t11.5 -28.5v-885q0 -143 -72 -264t-193 -192.5t-262 -71.5q-143 0 -264 71.5 t-192.5 192.5t-71.5 264z" />
<glyph unicode="V" horiz-adv-x="1351" d="M74 1395q0 16 11 27.5t28 11.5q31 0 45 -33l520 -1251l522 1257q14 27 39 27q18 0 29.5 -10.5t11.5 -26.5q0 -8 -4 -21l-561 -1349q-12 -27 -39 -27q-12 0 -23.5 7t-15.5 20l-557 1343q-6 12 -6 25z" />
<glyph unicode="W" horiz-adv-x="1994" d="M72 1397q0 18 14 29.5t31 11.5q12 0 23.5 -7.5t15.5 -19.5l434 -1253l368 932q10 27 39 26q12 0 23.5 -7t15.5 -19l371 -934l432 1255q10 27 41 27q18 0 30.5 -10.5t12.5 -28.5l-4 -21l-469 -1351q-4 -12 -15.5 -19.5t-21.5 -7.5q-33 0 -41 25l-375 946l-374 -946 q-10 -25 -43 -25q-12 0 -22.5 7t-12.5 20l-469 1351z" />
<glyph unicode="X" horiz-adv-x="1206" d="M61 1399q0 18 12.5 29.5t28.5 11.5q25 0 35 -17l469 -641l467 643q12 16 31 17q18 0 29.5 -9.5t11.5 -23.5t-10 -29l-482 -663l482 -658q10 -14 10 -24q0 -18 -12.5 -29.5t-30.5 -11.5q-23 0 -33 16l-469 639l-467 -639q-10 -16 -31 -16q-18 0 -28.5 11t-10.5 24 q0 10 11 26l481 658l-485 661q-8 10 -9 25z" />
<glyph unicode="Y" horiz-adv-x="1120" d="M41 1403q0 14 13.5 26.5t29.5 12.5q23 0 35 -19l442 -604l443 604q12 18 34 19q18 0 29.5 -13.5t11.5 -25.5q0 -11 -8 -27l-467 -635v-700q0 -16 -12 -28.5t-31 -12.5q-18 0 -30.5 12.5t-12.5 28.5v692l-469 643q-8 10 -8 27z" />
<glyph unicode="Z" horiz-adv-x="1316" d="M123 43q0 14 8 25l967 1288h-893q-16 0 -28.5 11t-12.5 28q0 16 12 27.5t29 11.5h962q25 0 36 -12.5t11 -28.5q0 -14 -8 -25l-964 -1290h929q17 0 29 -12.5t12 -26.5q0 -16 -12 -27.5t-29 -11.5h-1007q-18 0 -29.5 13.5t-11.5 29.5z" />
<glyph unicode="[" horiz-adv-x="804" d="M164 -348v1741q0 16 12 28.5t29 12.5h477q16 0 28.5 -11.5t12.5 -27.5t-12.5 -27.5t-28.5 -11.5h-436v-1663h436q16 0 28.5 -13.5t12.5 -29.5t-12.5 -27.5t-28.5 -11.5h-477q-16 0 -28.5 12t-12.5 29z" />
<glyph unicode="\" horiz-adv-x="1040" d="M10 1612q0 14 10.5 23.5t28.5 9.5q25 0 35 -7.5t15 -17.5l7 -14l928 -1819q6 -12 6 -25q0 -14 -12 -24t-29 -10q-22 0 -33.5 9t-21.5 30l-928 1818q-6 10 -6 27z" />
<glyph unicode="]" horiz-adv-x="804" d="M82 -350q0 16 12 27.5t29 11.5h436v1663h-436q-16 0 -28.5 13t-12.5 30q0 16 12 27.5t29 11.5h477q16 0 28.5 -12.5t12.5 -28.5v-1741q0 -16 -12.5 -28.5t-28.5 -12.5h-477q-16 0 -28.5 11t-12.5 28z" />
<glyph unicode="^" horiz-adv-x="991" d="M121 901q0 14 8 29l313 581q12 25 23.5 35t30.5 10q18 0 28.5 -10t24.5 -35l313 -583q6 -13 6 -25q0 -16 -10 -27.5t-29 -11.5q-18 0 -30.5 10.5t-24.5 32.5l-278 539l-283 -539q-12 -23 -23.5 -33t-31.5 -10q-16 0 -26.5 10.5t-10.5 26.5z" />
<glyph unicode="_" horiz-adv-x="1339" d="M123 -287q0 20 12 30.5t33 10.5h1003q20 0 33 -10t13 -31q0 -16 -12.5 -28.5t-33.5 -12.5h-1003q-21 0 -33 12.5t-12 28.5z" />
<glyph unicode="`" horiz-adv-x="440" d="M102 1362q0 47 45 47q35 0 54 -33l127 -190q10 -16 10 -27q0 -10 -6 -17t-17 -7q-22 -1 -53 30l-145 162q-14 18 -15 35z" />
<glyph unicode="a" d="M98 522q0 152 62.5 274t171 190.5t241.5 68.5t240 -70t154 -186v182q0 16 11 28.5t30 12.5q18 0 29.5 -12.5t11.5 -28.5v-940q0 -16 -12.5 -28.5t-28.5 -12.5q-18 0 -29.5 12.5t-11.5 28.5v184q-51 -104 -158 -174.5t-236 -70.5q-135 0 -243.5 70.5t-170 194.5t-61.5 277 zM180 522q0 -131 51.5 -237.5t141.5 -167t205 -60.5q112 0 203 60.5t142.5 167t51.5 237.5q0 125 -51.5 229.5t-142.5 165t-203 60.5q-113 0 -204 -58.5t-142.5 -162t-51.5 -234.5z" />
<glyph unicode="b" d="M170 41v1432q0 16 11.5 28t29.5 12t29.5 -12t11.5 -28v-668q61 121 164.5 185.5t228.5 64.5q135 0 243.5 -68.5t170 -190.5t61.5 -274t-62.5 -275.5t-171 -195t-241.5 -71.5q-121 0 -223.5 64.5t-169.5 178.5v-182q0 -16 -11.5 -28.5t-29.5 -12.5q-16 0 -28.5 12.5 t-12.5 28.5zM244 522q0 -131 51 -237.5t141 -167t205 -60.5q113 0 203 61.5t142 167t52 236.5t-52 234.5t-142 162t-203 58.5q-115 0 -206 -58.5t-141 -162t-50 -234.5z" />
<glyph unicode="c" horiz-adv-x="1050" d="M98 518q0 143 64.5 266t182.5 197t269 74q88 0 171 -20.5t133.5 -54.5t50.5 -71q0 -16 -11.5 -28.5t-27.5 -12.5q-18 0 -27.5 6.5t-25.5 22.5q-27 31 -56 45q-74 35 -209 35q-117 0 -216 -61.5t-157.5 -167t-58.5 -230.5q0 -131 54.5 -236.5t153.5 -165t224 -59.5 q82 0 129 14.5t95 41.5q33 20 57 45q10 10 20.5 17t20.5 7q16 0 25.5 -10t9.5 -27q0 -29 -47.5 -68.5t-130 -68t-185.5 -28.5q-147 0 -263 69.5t-180.5 192.5t-64.5 276z" />
<glyph unicode="d" d="M98 518q0 152 62.5 274.5t171 192.5t241.5 70q127 0 236 -72t158 -186v678q0 16 11 28.5t30 12.5q18 0 29.5 -12.5t11.5 -28.5v-1434q0 -16 -12.5 -28.5t-28.5 -12.5q-18 0 -29.5 12.5t-11.5 28.5v195q-49 -109 -155.5 -182.5t-238.5 -73.5q-133 0 -241.5 70.5 t-171 193.5t-62.5 274zM180 518q0 -131 52.5 -235.5t142.5 -165t203 -60.5q114 0 204 59.5t141.5 165t51.5 236.5t-51.5 235.5t-142.5 164t-203 59.5q-111 0 -202 -59.5t-143.5 -165t-52.5 -234.5z" />
<glyph unicode="e" horiz-adv-x="1122" d="M98 512q0 164 64.5 288t171 189.5t227.5 65.5t224.5 -52.5t169 -157t69.5 -257.5q0 -16 -12.5 -29.5t-28.5 -13.5h-805v-27q0 -127 51.5 -232.5t151.5 -167t242 -61.5q98 0 185 48.5t136 121.5q14 18 35 19q14 0 24.5 -11.5t10.5 -25.5t-8 -25q-68 -90 -168.5 -147 t-214.5 -57q-154 0 -273 65.5t-185.5 186t-66.5 280.5zM186 623h754v18q-10 104 -66.5 179t-139.5 114t-173 39q-76 0 -154.5 -40t-139 -119t-81.5 -191z" />
<glyph unicode="f" horiz-adv-x="679" d="M57 971q0 18 11.5 28.5t27.5 10.5h164v250q0 121 64.5 183t164.5 62q51 0 97.5 -13t46.5 -44q0 -16 -12.5 -28.5t-26.5 -12.5q-16 0 -43 10q-47 14 -70 15q-63 0 -101 -43t-38 -129v-250h242q16 0 27.5 -11.5t11.5 -27.5t-11.5 -27.5t-27.5 -11.5h-242v-891 q0 -16 -12.5 -28.5t-28.5 -12.5q-18 0 -29.5 12.5t-11.5 28.5v891h-164q-14 0 -26.5 12t-12.5 27z" />
<glyph unicode="g" horiz-adv-x="1259" d="M98 518q0 152 64.5 274.5t178.5 192.5t253 70q137 0 250.5 -73t163.5 -175v174q0 16 11 28.5t30 12.5q18 0 29.5 -12.5t11.5 -28.5v-881q0 -156 -63.5 -270.5t-178.5 -177t-262 -62.5q-82 0 -166 21.5t-138.5 55.5t-54.5 69q0 16 9.5 26.5t25.5 10.5q12 0 37 -21 q29 -29 63 -43q100 -41 228 -41q193 0 305.5 119t112.5 313v142q-55 -131 -171 -196.5t-243 -65.5q-139 0 -253 70.5t-178.5 193.5t-64.5 274zM180 518q0 -131 54.5 -235.5t149.5 -165t214 -60.5t214 58.5t149.5 163t54.5 239.5t-54.5 239.5t-149.5 162t-214 57.5 t-214 -59.5t-149.5 -164t-54.5 -235.5z" />
<glyph unicode="h" horiz-adv-x="1150" d="M170 41v1434q0 16 12.5 28.5t28.5 12.5q18 0 29.5 -12.5t11.5 -28.5v-648q57 90 158.5 148.5t205.5 58.5q177 0 271 -111.5t94 -283.5v-598q0 -16 -12.5 -28.5t-28.5 -12.5q-18 0 -29.5 12.5t-11.5 28.5v598q0 141 -69.5 229t-213.5 88q-88 0 -173 -43t-138 -116.5 t-53 -157.5v-598q0 -16 -12.5 -28.5t-28.5 -12.5q-18 0 -29.5 12.5t-11.5 28.5z" />
<glyph unicode="i" horiz-adv-x="421" d="M139 1260v16q0 29 20.5 47t53.5 18q29 0 48.5 -18t19.5 -47v-16q0 -29 -19.5 -47.5t-50.5 -18.5q-33 0 -52.5 18.5t-19.5 47.5zM170 41v973q0 16 12.5 28.5t28.5 12.5q18 0 29.5 -12.5t11.5 -28.5v-973q0 -16 -12.5 -28.5t-28.5 -12.5q-18 0 -29.5 12.5t-11.5 28.5z" />
<glyph unicode="j" horiz-adv-x="548" d="M-41 -365q0 14 10.5 25.5t26.5 13.5q80 12 140.5 63.5t60.5 143.5v1102q0 16 11 28.5t30 12.5q18 0 29.5 -12.5t11.5 -28.5v-1102q0 -86 -45.5 -151.5t-111 -100.5t-124.5 -35q-18 0 -28.5 10.5t-10.5 26.5v4zM166 1262v16q0 29 20.5 47t53.5 18q29 0 48.5 -18t19.5 -47 v-16q0 -29 -19.5 -47.5t-50.5 -18.5q-33 0 -52.5 18.5t-19.5 47.5z" />
<glyph unicode="k" horiz-adv-x="1073" d="M180 41v1434q0 16 11.5 28.5t29.5 12.5t29.5 -12.5t11.5 -28.5v-992l643 539q12 12 27 12q16 0 28.5 -12t12.5 -31q0 -18 -15 -30l-460 -383l475 -506q12 -13 12 -31t-15.5 -29.5t-25.5 -11.5q-16 0 -31 14l-479 510l-172 -143v-340q0 -16 -11 -28.5t-30 -12.5 q-18 0 -29.5 12.5t-11.5 28.5z" />
<glyph unicode="l" horiz-adv-x="442" d="M180 41v1434q0 16 12.5 28.5t28.5 12.5q18 0 29.5 -12.5t11.5 -28.5v-1434q0 -16 -12 -28.5t-29 -12.5q-18 0 -29.5 12.5t-11.5 28.5z" />
<glyph unicode="m" horiz-adv-x="1861" d="M170 41v940q0 16 12.5 28.5t28.5 12.5q18 0 29.5 -12.5t11.5 -28.5v-143q59 86 154.5 141t199.5 55q113 0 201 -57t129 -168q43 94 163 159.5t234 65.5q176 0 267.5 -110.5t91.5 -286.5v-596q0 -16 -11.5 -28.5t-29.5 -12.5t-29.5 12.5t-11.5 28.5v588q0 145 -71 236 t-214 91q-88 0 -173 -45t-138 -119.5t-53 -162.5v-588q0 -16 -11.5 -28.5t-29.5 -12.5t-29.5 12.5t-11.5 28.5v598q0 141 -68 229t-205 88q-86 0 -168 -43t-134 -116.5t-52 -157.5v-598q0 -16 -12.5 -28.5t-28.5 -12.5q-18 0 -29.5 12.5t-11.5 28.5z" />
<glyph unicode="n" horiz-adv-x="1171" d="M170 41v940q0 16 12.5 28.5t28.5 12.5q18 0 29.5 -12.5t11.5 -28.5v-137q59 92 166.5 151.5t216.5 59.5q182 0 274 -107.5t92 -279.5v-627q0 -16 -12 -28.5t-28 -12.5q-18 0 -29.5 12.5t-11.5 28.5v618q0 139 -73 228.5t-220 89.5q-90 0 -177.5 -43t-142.5 -117t-55 -158 v-618q0 -16 -12.5 -28.5t-28.5 -12.5q-18 0 -29.5 12.5t-11.5 28.5z" />
<glyph unicode="o" horiz-adv-x="1206" d="M98 516q0 152 66.5 274.5t181.5 193.5t258 71q141 0 257 -71t181.5 -193.5t65.5 -274.5q0 -151 -65.5 -273t-181.5 -192.5t-257 -70.5t-257 70.5t-182.5 193.5t-66.5 272zM180 516q0 -129 55.5 -233.5t152.5 -165t216 -60.5q121 0 217.5 59.5t150.5 165t54 234.5 q0 131 -54 235.5t-150.5 165t-217.5 60.5q-119 0 -216 -60.5t-152.5 -165t-55.5 -235.5z" />
<glyph unicode="p" d="M170 -369v1362q0 16 11.5 28.5t29.5 12.5t29.5 -12t11.5 -29v-188q61 117 163.5 173t229.5 56q135 0 243.5 -67.5t170 -186t61.5 -268.5q0 -147 -62.5 -267t-171 -188.5t-241.5 -68.5q-123 0 -225.5 61.5t-167.5 173.5v-592q0 -16 -11.5 -28.5t-29.5 -12.5 q-16 0 -28.5 12.5t-12.5 28.5zM244 512q0 -129 50 -230.5t141 -158.5t206 -57q113 0 203 57t142 159.5t52 229.5t-52 228.5t-142 158.5t-203 57q-115 0 -206 -56t-141 -157.5t-50 -230.5z" />
<glyph unicode="q" d="M98 518q0 152 62.5 274.5t171 192.5t241.5 70q127 0 236 -72t158 -186v196q0 16 11 28.5t30 12.5q18 0 29.5 -12t11.5 -29v-1362q0 -16 -12.5 -28.5t-28.5 -12.5q-18 0 -29.5 12.5t-11.5 28.5v605q-49 -109 -155.5 -182.5t-238.5 -73.5q-133 0 -241.5 70.5t-171 193.5 t-62.5 274zM180 518q0 -131 52.5 -235.5t142.5 -165t203 -60.5q114 0 204 59.5t141.5 165t51.5 236.5t-51.5 235.5t-142.5 164t-203 59.5q-111 0 -202 -59.5t-143.5 -165t-52.5 -234.5z" />
<glyph unicode="r" horiz-adv-x="753" d="M170 41v940q0 16 12.5 28.5t28.5 12.5q18 0 29.5 -12.5t11.5 -28.5v-217q47 125 146.5 207t234.5 84q94 0 94 -47q0 -18 -10 -30.5t-27 -12.5q-6 0 -29.5 9t-50.5 9q-84 0 -168 -66.5t-137 -168t-53 -195.5v-512q0 -16 -12.5 -28.5t-28.5 -12.5q-18 0 -29.5 12.5 t-11.5 28.5z" />
<glyph unicode="s" horiz-adv-x="952" d="M98 203q0 14 17 26q10 10 24 11q20 0 33 -17q119 -170 332 -170q109 0 190.5 54.5t81.5 146.5q0 94 -71.5 141t-196.5 78q-166 41 -261 109.5t-95 193.5q0 121 96 200t248 79q84 0 166.5 -33t150.5 -104q14 -12 14 -29q0 -18 -14 -33q-16 -8 -27 -8q-14 0 -24 12 q-106 117 -275 117q-109 0 -183.5 -53.5t-74.5 -147.5q6 -88 81 -136t220 -85q104 -27 173 -58.5t110 -89t41 -149.5q0 -129 -99.5 -203.5t-258.5 -74.5q-233 0 -383 184q-15 23 -15 39z" />
<glyph unicode="t" horiz-adv-x="647" d="M37 991q0 16 11 27.5t28 11.5h168v260q0 16 12 28.5t29 12.5q18 0 29.5 -12t11.5 -29v-260h225q14 0 26.5 -12t12.5 -27q0 -16 -11.5 -27.5t-27.5 -11.5h-225v-729q0 -90 31.5 -119.5t80.5 -29.5q8 0 23.5 4t25.5 4q14 0 24.5 -11.5t10.5 -25.5q0 -18 -24.5 -31.5 t-57.5 -13.5q-51 0 -86 7t-72.5 55.5t-37.5 156.5v733h-168q-14 0 -26.5 12.5t-12.5 26.5z" />
<glyph unicode="u" horiz-adv-x="1153" d="M170 385v596q0 16 12.5 28.5t28.5 12.5q18 0 29.5 -12.5t11.5 -28.5v-596q0 -154 86 -236.5t237 -82.5q154 0 240 82.5t86 236.5v596q0 16 11.5 28.5t29.5 12.5q19 0 30 -12.5t11 -28.5v-596q0 -195 -109.5 -296t-298.5 -101q-188 0 -296.5 101t-108.5 296z" />
<glyph unicode="v" horiz-adv-x="1060" d="M78 1018q0 16 11 28.5t32 12.5q10 0 21.5 -7.5t15.5 -19.5l370 -891l373 891q10 27 43 27q12 0 25.5 -9.5t13.5 -23.5q0 -12 -6 -25l-408 -974q-4 -12 -15 -19.5t-24 -7.5q-12 0 -23 7t-15 20l-410 972q-4 12 -4 19z" />
<glyph unicode="w" horiz-adv-x="1527" d="M78 1020q0 18 12 28.5t31 10.5q27 0 37 -27l288 -893l273 674q4 12 15 19.5t24 7.5q12 0 23.5 -7.5t15.5 -19.5l288 -668l285 887q10 27 37 27q18 0 30.5 -10.5t12.5 -28.5l-4 -21l-318 -972q-12 -27 -38 -27q-25 0 -39 27l-297 669l-267 -669q-4 -12 -15 -19.5t-23 -7.5 t-23.5 7t-15.5 20l-328 972z" />
<glyph unicode="x" horiz-adv-x="989" d="M82 1001q0 18 13.5 30.5t29.5 12.5q20 0 33 -18l340 -444l333 444q16 18 35 18q18 0 28.5 -10t10.5 -24q0 -12 -10 -27l-348 -467l350 -459q8 -10 8 -24q0 -16 -11 -28.5t-28 -12.5q-18 0 -35 18l-335 439l-338 -441q-12 -16 -33 -16q-16 0 -27.5 10t-11.5 29q0 14 8 24 l352 457l-356 465q-8 10 -8 24z" />
<glyph unicode="y" horiz-adv-x="1150" d="M170 375v639q0 16 11.5 28.5t29.5 12.5t29.5 -12.5t11.5 -28.5v-639q0 -317 283 -318q88 0 173 46.5t138 120t53 151.5v639q0 16 11.5 28.5t29.5 12.5t29.5 -12.5t11.5 -28.5v-914q0 -154 -62.5 -269.5t-172 -178t-248.5 -62.5q-90 0 -165 21.5t-126 56.5q-27 18 -27 39 q0 8 4 17q14 25 35 24q10 0 19 -6q49 -31 117.5 -54.5t146.5 -23.5q117 0 207 55.5t140 154.5t50 226v93q-47 -92 -150.5 -152.5t-213.5 -60.5q-184 0 -274.5 105t-90.5 290z" />
<glyph unicode="z" horiz-adv-x="976" d="M102 41q0 12 11 27l647 909h-553q-16 0 -28.5 11t-12.5 28q0 16 12 27.5t29 11.5h627q16 0 27 -12.5t13 -28.5q0 -15 -10 -29l-647 -907h596q16 0 28.5 -12.5t12.5 -26.5q0 -16 -12.5 -27.5t-28.5 -11.5h-668q-18 0 -30.5 14.5t-12.5 26.5z" />
<glyph unicode="{" horiz-adv-x="892" d="M51 524q0 14 12.5 25.5t28.5 11.5h12q246 0 246 322v161q0 133 49.5 211t128 117t209.5 78q16 4 21 4q18 0 25.5 -10t7.5 -23q0 -27 -33 -37q-139 -41 -208 -84t-93.5 -103t-24.5 -165v-153q0 -135 -48 -234.5t-134 -122.5q88 -25 135 -122t47 -234v-154 q0 -104 24.5 -165.5t93 -104.5t208.5 -82q16 -4 24.5 -17.5t5.5 -29.5q-8 -23 -32 -23l-15 2q-160 35 -244.5 90.5t-115.5 131t-31 186.5v162q0 139 -56 230t-190 91h-12q-16 0 -28.5 12.5t-12.5 28.5z" />
<glyph unicode="|" horiz-adv-x="389" d="M154 -369v1925q0 16 11 28.5t30 12.5q18 0 29.5 -12t11.5 -29v-1925q0 -16 -11.5 -28.5t-29.5 -12.5t-29.5 12.5t-11.5 28.5z" />
<glyph unicode="}" horiz-adv-x="892" d="M102 -377q0 27 33 37q139 41 208 84t93.5 103.5t24.5 164.5v154q0 135 48 234.5t134 121.5q-88 25 -135 122t-47 235v153q0 104 -24.5 166t-93.5 105t-208 81q-16 4 -24.5 17.5t-6.5 30.5q8 23 33 22l15 -2q160 -35 244.5 -90t115.5 -131t31 -187v-161q0 -139 56 -230.5 t189 -91.5h13q16 0 28.5 -12t12.5 -29q0 -14 -12.5 -25.5t-28.5 -11.5h-13q-246 0 -245 -321v-162q0 -102 -34 -162.5t-109.5 -110t-247.5 -135.5q-4 -2 -13 -2q-20 0 -28.5 10.5t-8.5 22.5z" />
<glyph unicode="~" horiz-adv-x="894" d="M102 459q0 35 18.5 73.5t57.5 66.5t94 28q41 0 83 -14.5t118 -45.5q68 -29 103.5 -41t68.5 -12q61 0 74 88q2 16 12 26.5t27 10.5q12 0 23.5 -7t11.5 -20q0 -78 -44 -127t-120 -49q-37 0 -78 13.5t-111 42.5q-63 27 -103 40t-73 13q-66 0 -90 -86q-8 -29 -39 -29 q-33 0 -33 29z" />
<glyph unicode="&#xa1;" horiz-adv-x="323" d="M102 915v48q0 29 14.5 46t41.5 17h8q27 0 41 -17.5t14 -45.5v-48q0 -29 -14 -46t-41 -17h-8q-27 0 -41.5 17.5t-14.5 45.5zM121 -344l10 954q2 33 31 33t31 -33l10 -954q0 -31 -8.5 -47.5t-32.5 -16.5q-25 0 -33 16.5t-8 47.5z" />
<glyph unicode="&#xa2;" horiz-adv-x="1050" d="M98 702q0 133 55.5 249t158 192t235.5 92v127q0 16 11 28.5t30 12.5q18 0 29.5 -12.5t11.5 -28.5v-123q86 -2 164.5 -23.5t127 -54.5t48.5 -67q0 -16 -11.5 -28.5t-27.5 -12.5q-18 0 -27.5 6t-25.5 22q-27 31 -56 45q-63 33 -192 35v-919q74 2 116.5 15t90.5 40 q33 20 57 45q10 10 20.5 17.5t20.5 7.5q16 0 25.5 -10.5t9.5 -26.5q0 -27 -44 -65t-122 -67.5t-174 -33.5v-123q0 -16 -11.5 -28.5t-29.5 -12.5t-29.5 12.5t-11.5 28.5v125q-133 14 -234.5 87t-158 189.5t-56.5 259.5zM180 702q0 -182 101.5 -308t265.5 -148v909 q-102 -16 -186.5 -79.5t-132.5 -162t-48 -211.5z" />
<glyph unicode="&#xa3;" horiz-adv-x="1251" d="M102 -6q0 31 35 39q6 2 94 26q37 12 56 17q39 41 66.5 109.5t27.5 148.5q0 61 -11.5 120.5t-35.5 149.5l-21 82h-168q-18 0 -30.5 11.5t-12.5 29.5q0 16 12.5 28.5t30.5 12.5h152q-18 106 -18 197q0 147 54 257.5t153.5 171t232.5 60.5q121 0 229.5 -44t171.5 -124 q20 -29 21 -43q0 -16 -15.5 -29.5t-33.5 -13.5q-16 0 -27 12q-57 74 -147.5 117t-198.5 43q-162 0 -258 -110.5t-96 -294.5q0 -106 18 -199h567q18 0 30.5 -12.5t12.5 -28.5q0 -18 -12 -29.5t-31 -11.5h-551q-4 25 27 -111q4 -14 16.5 -67t18.5 -96t6 -78q0 -135 -70 -228 q57 10 113 11q59 0 124.5 -11.5t158.5 -33.5q160 -39 231 -39q61 0 97 11t65 38q20 23 41 22q18 0 27.5 -11t9.5 -25q0 -23 -12.5 -34t-14.5 -14q-51 -35 -106.5 -52t-104.5 -17q-59 0 -117.5 11t-146.5 34q-94 23 -148.5 33t-111.5 10q-55 0 -109.5 -12.5t-120.5 -30.5 l-47 -12q-23 -4 -53.5 -15.5t-34.5 -11.5q-16 0 -25.5 12.5t-9.5 24.5z" />
<glyph unicode="&#xa5;" horiz-adv-x="1120" d="M41 1403q0 14 13.5 26.5t29.5 12.5q23 0 35 -19l442 -604l443 604q12 18 34 19q18 0 29.5 -13.5t11.5 -25.5q0 -10 -8 -27l-467 -635v-55l322 -4q18 0 30.5 -11.5t12.5 -29.5q0 -16 -12.5 -27.5t-30.5 -11.5l-322 4v-186l322 -4q18 0 30.5 -11.5t12.5 -29.5 q0 -16 -12.5 -27.5t-30.5 -11.5l-322 4v-299q0 -16 -12 -28.5t-31 -12.5q-18 0 -30.5 12.5t-12.5 28.5v299l-319 4q-18 0 -30.5 11.5t-12.5 27.5q0 18 12 29.5t31 11.5l319 -4v186l-319 4q-18 0 -30.5 11.5t-12.5 27.5q0 18 12 29.5t31 11.5l319 -4v47l-469 643q-8 10 -8 27 z" />
<glyph unicode="&#xa7;" horiz-adv-x="1073" d="M100 -84q0 14 11.5 26.5t27.5 12.5q18 0 29 -10q57 -57 146 -102.5t202 -45.5q109 0 202 49.5t93 198.5q0 86 -84 147.5t-244 110.5q-172 51 -260 125t-88 197q0 96 64.5 171.5t189.5 102.5q-82 43 -125 108.5t-43 143.5q0 104 57.5 169.5t138.5 94.5t161 29 q92 0 162.5 -31t131.5 -80q18 -14 19 -30q0 -16 -10.5 -29.5t-28.5 -13.5q-16 0 -27 8q-57 43 -114.5 68.5t-132.5 25.5q-109 0 -192 -52.5t-83 -158.5q0 -82 58.5 -136t121 -79t140.5 -45q178 -53 263 -124t85 -196q0 -96 -72 -170.5t-194 -97.5q100 -57 144 -115.5 t44 -142.5q0 -164 -105.5 -247t-267.5 -83q-125 0 -231.5 50.5t-167.5 111.5q-20 20 -21 39zM217 629q0 -82 66.5 -139.5t216.5 -104.5l123 -25q79 0 139.5 31t93.5 79t33 101q0 88 -64.5 138.5t-218.5 99.5l-147 31q-61 0 -117.5 -30t-90.5 -79t-34 -102z" />
<glyph unicode="&#xa8;" horiz-adv-x="802" d="M164 1303v16q0 33 20.5 53.5t53.5 20.5q29 0 48 -20.5t19 -53.5v-16q0 -33 -19.5 -53.5t-49.5 -20.5q-33 0 -52.5 20.5t-19.5 53.5zM498 1303v16q0 33 20.5 53.5t52.5 20.5q29 0 48.5 -20.5t19.5 -53.5v-16q0 -33 -19.5 -53.5t-50.5 -20.5q-32 0 -51.5 20.5t-19.5 53.5z " />
<glyph unicode="&#xa9;" horiz-adv-x="1638" d="M102 717q0 205 96.5 368.5t260.5 256t360 92.5q195 0 359.5 -92.5t261 -256t96.5 -368.5t-96.5 -369t-261 -256t-359.5 -92q-196 0 -360 92t-260.5 256t-96.5 369zM184 717q0 -182 85 -328.5t230.5 -228.5t319.5 -82t319.5 82t230.5 228.5t85 328.5t-85 328.5 t-231.5 228.5t-318.5 82t-318.5 -82t-231.5 -228.5t-85 -328.5zM455 717q0 109 48 198t140 141t215 52q66 0 129.5 -19.5t114.5 -54.5q16 -12 16 -33q0 -16 -8 -24q-12 -16 -31 -16q-8 0 -24 8q-96 61 -197 61q-152 0 -236.5 -87t-84.5 -226q0 -141 84 -228.5t237 -87.5 q100 0 199 62q10 6 22 6q18 0 31 -16q8 -8 8 -23q0 -18 -16 -35q-111 -72 -244 -71q-123 0 -215 52t-140 142t-48 199z" />
<glyph unicode="&#xaa;" horiz-adv-x="714" d="M51 1137q0 88 36 160.5t97.5 114.5t137.5 42q68 0 123 -30.5t85 -88.5v45q0 16 11.5 28.5t29.5 12.5q19 0 30 -12t11 -29v-518q0 -18 -12 -29.5t-29 -11.5q-18 0 -29.5 12.5t-11.5 28.5v68q-37 -55 -96 -92t-129 -37q-121 0 -187.5 95t-66.5 241zM133 1137 q0 -113 48 -185.5t138 -72.5q99 0 159.5 69.5t60.5 188.5q0 113 -56.5 176t-146.5 63q-82 0 -142.5 -68.5t-60.5 -170.5z" />
<glyph unicode="&#xab;" horiz-adv-x="909" d="M51 524q0 18 12 33l275 367q16 20 37 20q18 0 30.5 -10t12.5 -29q0 -18 -15 -33l-256 -350l256 -344q14 -18 15 -31q0 -23 -14.5 -34t-30.5 -11q-18 0 -35 19l-275 366q-12 16 -12 37zM450 524q0 18 12 33l275 367q16 20 37 20q18 0 30.5 -10t12.5 -29q0 -18 -15 -33 l-256 -350l256 -344q14 -18 15 -31q0 -23 -14.5 -34t-30.5 -11q-18 0 -35 19l-275 366q-12 16 -12 37z" />
<glyph unicode="&#xac;" horiz-adv-x="1308" d="M102 774q0 16 13.5 28.5t31.5 12.5h1008q23 0 37 -14.5t14 -36.5v-440q0 -20 -11 -34t-30 -14q-18 0 -31.5 13.5t-13.5 32.5v411h-973q-18 0 -31.5 11.5t-13.5 29.5z" />
<glyph unicode="&#xad;" horiz-adv-x="794" d="M123 504q0 16 11 27.5t28 11.5h471q16 0 27.5 -12.5t11.5 -30.5q0 -16 -11.5 -27.5t-27.5 -11.5h-471q-17 0 -28 12t-11 31z" />
<glyph unicode="&#xae;" horiz-adv-x="1122" d="M102 987q0 131 61.5 235.5t167 164t230.5 59.5t230.5 -59.5t167 -164t61.5 -235.5t-61.5 -235.5t-167 -164t-230.5 -59.5t-230.5 59.5t-167 164t-61.5 235.5zM184 987q0 -111 49.5 -198t135.5 -135t192 -48q107 0 192 48t133 135.5t48 197.5q0 113 -48 199t-133 134 t-192 48q-106 0 -192 -48t-135.5 -135t-49.5 -198zM403 776v426q0 10 9.5 20.5t21.5 10.5h141q88 0 131.5 -32t43.5 -103q0 -96 -105 -121q27 -16 46.5 -48t19.5 -69q0 -33 6 -45t20 -16q21 -5 21 -23t-17.5 -28.5t-42.5 -10.5q-29 0 -48 31t-19 86q0 37 -17.5 60.5 t-52.5 23.5h-80v-162q0 -12 -12 -22.5t-27 -10.5q-14 0 -26.5 10.5t-12.5 22.5zM481 1012h84q47 0 77 19.5t30 58.5q0 41 -23.5 55t-73.5 14h-94v-147z" />
<glyph unicode="&#xaf;" horiz-adv-x="778" d="M102 1200q0 43 41 43h492q41 0 41 -43q0 -41 -41 -41h-492q-41 0 -41 41z" />
<glyph unicode="&#xb0;" horiz-adv-x="638" d="M51 1163q0 76 36 141.5t97.5 103.5t134.5 38q76 0 137.5 -38t96.5 -102.5t35 -138.5q0 -76 -36 -141t-97.5 -103t-135.5 -38q-73 0 -134.5 38t-97.5 102.5t-36 137.5zM133 1163q0 -80 54.5 -140t131.5 -60q78 0 132.5 61t54.5 143q0 80 -54.5 140.5t-132.5 60.5 t-132 -61.5t-54 -143.5z" />
<glyph unicode="&#xb1;" horiz-adv-x="1032" d="M102 43q0 16 12.5 27.5t30.5 11.5h742q18 0 30.5 -11.5t12.5 -31.5q0 -18 -12.5 -28.5t-30.5 -10.5h-740q-20 0 -32.5 12.5t-12.5 30.5zM117 588q0 16 12 27.5t31 11.5h315v272q0 20 12.5 32.5t30.5 12.5q20 0 31.5 -12t11.5 -31v-274h299q18 0 30.5 -12.5t12.5 -30.5 q0 -16 -12 -27.5t-31 -11.5h-299v-269q0 -20 -12 -32.5t-31 -12.5q-18 0 -30.5 12.5t-12.5 30.5v271h-315q-19 0 -31 12t-12 31z" />
<glyph unicode="&#xb4;" horiz-adv-x="589" d="M174 1245q0 10 10 27l127 190q18 33 54 33q23 0 38 -13.5t15 -37.5q0 -16 -15 -35l-153 -158q-31 -31 -53 -30q-11 0 -17 7t-6 17z" />
<glyph unicode="&#xb5;" horiz-adv-x="1097" d="M164 -266v1280q0 16 12 28.5t29 12.5q18 0 29.5 -12.5t11.5 -28.5v-639q0 -139 67.5 -226.5t204.5 -87.5q84 0 167 47.5t135 120t52 146.5v639q0 16 12.5 28.5t28.5 12.5q19 0 30 -12.5t11 -28.5v-973q0 -16 -12 -28.5t-29 -12.5q-18 0 -29.5 12.5t-11.5 28.5v162 q-41 -90 -140 -156.5t-214 -66.5q-82 0 -156.5 38.5t-115.5 106.5v-391q0 -16 -11.5 -28.5t-29.5 -12.5t-29.5 12t-11.5 29z" />
<glyph unicode="&#xb6;" horiz-adv-x="1269" d="M102 997q0 172 56.5 265.5t180.5 132.5t345 39h340q16 0 28.5 -12.5t12.5 -28.5v-1346q0 -23 -10.5 -35t-30.5 -12t-30.5 12.5t-10.5 34.5v1305h-209v-1239q0 -100 -63.5 -167t-167.5 -67q-68 0 -119 26.5t-51 59.5q0 16 13 29.5t32 13.5q18 0 49 -22q37 -29 76 -29 q66 0 107.5 46t41.5 112v426h-51q-201 4 -317.5 49t-169 143t-52.5 264z" />
<glyph unicode="&#xb7;" horiz-adv-x="380" d="M123 586v47q0 29 18.5 46t44.5 17h9q29 0 46 -17t17 -46v-47q0 -27 -17.5 -45.5t-45.5 -18.5h-9q-26 0 -44.5 18.5t-18.5 45.5z" />
<glyph unicode="&#xb8;" horiz-adv-x="579" d="M63 -233q0 18 11 28l184 225h57l-137 -278q-14 -31 -43 -31q-20 0 -46 17.5t-26 38.5z" />
<glyph unicode="&#xba;" horiz-adv-x="712" d="M51 1124q0 92 40 168t108.5 119t154.5 43t157 -43t111 -118.5t40 -168.5q0 -90 -40 -163.5t-111 -115.5t-157 -42t-155.5 42t-108.5 115.5t-39 163.5zM129 1124q0 -104 62.5 -174.5t162.5 -70.5q102 0 166 70.5t64 174.5q0 111 -63.5 181.5t-166.5 70.5 q-102 0 -163.5 -70.5t-61.5 -181.5z" />
<glyph unicode="&#xbb;" horiz-adv-x="882" d="M92 141q0 18 15 33l256 350l-256 344q-14 18 -15 31q0 23 14.5 34t30.5 11q20 0 35 -18l275 -367q12 -14 12 -37q0 -16 -12 -33l-275 -366q-16 -20 -37 -21q-18 0 -30.5 10.5t-12.5 28.5zM465 141q0 18 15 33l256 350l-256 344q-14 18 -15 31q0 23 14.5 34t30.5 11 q20 0 35 -18l275 -367q12 -14 12 -37q0 -16 -12 -33l-275 -366q-16 -20 -37 -21q-18 0 -30.5 10.5t-12.5 28.5z" />
<glyph unicode="&#xbf;" horiz-adv-x="940" d="M102 57q0 94 52.5 186.5t141.5 155t193 72.5v242q0 16 11.5 28.5t27.5 12.5q18 0 29.5 -12.5t9.5 -28.5v-275q0 -16 -12 -28.5t-29 -12.5q-94 -6 -170.5 -53t-121 -123t-44.5 -164q0 -100 41 -179t113 -122t160 -43q92 0 174 44t135 118q16 18 35 19q12 0 18 -5 q23 -11 23 -34q0 -14 -8 -25q-63 -88 -164 -141.5t-213 -53.5q-111 0 -203 51.5t-145.5 146.5t-53.5 224zM461 1030v47q0 29 14 46.5t41 17.5h8q27 0 41.5 -17.5t14.5 -46.5v-47q0 -29 -14.5 -46t-41.5 -17h-8q-27 0 -41 17t-14 46z" />
<glyph unicode="&#xc0;" horiz-adv-x="1329" d="M72 35q-2 8 2 20l551 1356q6 16 15 21.5t24 5.5q31 0 41 -27l550 -1356q2 -6 2 -16q0 -18 -12 -28.5t-31 -10.5q-14 0 -25 7t-15 20l-173 422l3 -5h-687l-165 -417q-10 -27 -37 -27q-18 0 -29.5 10t-13.5 25zM350 526h621l-314 772zM395 1692q0 20 12.5 34.5t34.5 14.5 q25 0 45 -17l185 -137q18 -14 18 -30q0 -10 -6 -17.5t-18 -7.5q-14 0 -43 14l-199 97q-29 16 -29 49z" />
<glyph unicode="&#xc1;" horiz-adv-x="1329" d="M72 35q-2 8 2 20l551 1356q6 16 15 21.5t24 5.5q31 0 41 -27l550 -1356q2 -6 2 -16q0 -18 -12 -28.5t-31 -10.5q-14 0 -25 7t-15 20l-173 422l3 -5h-687l-165 -417q-10 -27 -37 -27q-18 0 -29.5 10t-13.5 25zM350 526h621l-314 772zM649 1557q0 16 19 30l184 137 q20 16 45 17q23 0 35 -14.5t12 -34.5q0 -33 -29 -49l-198 -97q-29 -14 -43 -14q-13 0 -19 7t-6 18z" />
<glyph unicode="&#xc2;" horiz-adv-x="1329" d="M72 35q-2 8 2 20l551 1356q6 16 15 21.5t24 5.5q31 0 41 -27l550 -1356q2 -6 2 -16q0 -18 -12 -28.5t-31 -10.5q-14 0 -25 7t-15 20l-173 422l3 -5h-687l-165 -417q-10 -27 -37 -27q-18 0 -29.5 10t-13.5 25zM350 526h621l-314 772zM426 1597q0 12 12 25l166 176 q14 14 23.5 19t25.5 5h21q16 0 25.5 -5t23.5 -19l166 -174q12 -13 12 -25q0 -10 -7 -17t-18 -7q-14 0 -38 20l-181 139l-168 -141q-25 -20 -39 -20q-10 0 -17 7t-7 17z" />
<glyph unicode="&#xc3;" horiz-adv-x="1329" d="M72 35q-2 8 2 20l551 1356q6 16 15 21.5t24 5.5q31 0 41 -27l550 -1356q2 -6 2 -16q0 -18 -12 -28.5t-31 -10.5q-14 0 -25 7t-15 20l-173 422l3 -5h-687l-165 -417q-10 -27 -37 -27q-18 0 -29.5 10t-13.5 25zM350 526h621l-314 772zM375 1636q0 16 6 37q16 63 61.5 94 t100.5 31q31 0 63.5 -15.5t85.5 -47.5q47 -29 73 -41.5t48 -12.5q31 0 50.5 25t25.5 68q2 16 11 26t26 10q33 0 33 -38q0 -6 -5 -31q-31 -133 -157 -133q-27 0 -57.5 14t-79.5 45q-53 29 -78 41t-47 12q-66 0 -93 -90q-8 -29 -36 -28q-31 -1 -31 34z" />
<glyph unicode="&#xc4;" horiz-adv-x="1329" d="M72 35q-2 8 2 20l551 1356q6 16 15 21.5t24 5.5q31 0 41 -27l550 -1356q2 -6 2 -16q0 -18 -12 -28.5t-31 -10.5q-14 0 -25 7t-15 20l-173 422l3 -5h-687l-165 -417q-10 -27 -37 -27q-18 0 -29.5 10t-13.5 25zM350 526h621l-314 772zM428 1671v17q0 33 20.5 53t53.5 20 q29 0 48.5 -20.5t19.5 -52.5v-17q0 -33 -19.5 -53.5t-50.5 -20.5q-33 0 -52.5 20.5t-19.5 53.5zM762 1671v17q0 33 20.5 53t53.5 20q29 0 48.5 -20.5t19.5 -52.5v-17q0 -33 -19.5 -53.5t-50.5 -20.5q-33 0 -52.5 20.5t-19.5 53.5z" />
<glyph unicode="&#xc5;" horiz-adv-x="1329" d="M72 35q-2 8 2 20l538 1327q-63 16 -105 67.5t-42 117.5q0 80 60.5 136t140.5 56t140 -56t60 -136q0 -66 -43 -118t-106 -69l538 -1325q2 -6 2 -16q0 -18 -12 -28.5t-31 -10.5q-14 0 -25 7t-15 20l-173 422l3 -5h-687l-165 -417q-10 -27 -37 -27q-18 0 -29.5 10t-13.5 25z M350 526h621l-314 772zM539 1567q0 -51 37.5 -89t89.5 -38q53 0 90 38t37 89q0 53 -37 90t-90 37q-51 0 -89 -37t-38 -90z" />
<glyph unicode="&#xc6;" horiz-adv-x="1906" d="M18 41q0 14 7 22l946 1352q16 18 37 19h755q16 0 28.5 -12.5t12.5 -28.5q0 -18 -12 -29.5t-29 -11.5h-710v-572h618q16 0 28.5 -12t12.5 -29q0 -18 -12 -29.5t-29 -11.5h-618v-616h710q17 0 29 -12.5t12 -28.5q0 -18 -12 -29.5t-29 -11.5h-751q-16 0 -28.5 12.5 t-12.5 28.5v321h-637l-242 -346q-12 -18 -35 -18q-16 0 -27.5 12.5t-11.5 30.5zM391 444h580v828z" />
<glyph unicode="&#xc7;" horiz-adv-x="1355" d="M102 717q0 207 96.5 376t260.5 265t358 96q123 0 238.5 -37t210.5 -102q18 -14 18 -33q0 -16 -8 -27q-12 -16 -31 -16q-8 0 -24 8q-190 129 -404 129q-172 0 -316.5 -85t-228.5 -235.5t-84 -338.5t84 -339t228.5 -236t316.5 -85q215 0 402 127q10 8 24 9q20 0 33 -17 q8 -10 8 -24q0 -20 -16 -33q-72 -51 -184.5 -90t-225.5 -47l-117 -240q-14 -31 -43 -31q-20 0 -45.5 17.5t-25.5 38.5q0 18 10 28l151 185q-188 8 -344.5 105t-249 263t-92.5 369z" />
<glyph unicode="&#xc8;" horiz-adv-x="1161" d="M205 41v1352q0 16 12 28.5t29 12.5h772q16 0 28.5 -12.5t12.5 -28.5q0 -18 -12.5 -29.5t-28.5 -11.5h-727v-572h635q16 0 28.5 -12t12.5 -29q0 -18 -12.5 -29.5t-28.5 -11.5h-635v-616h727q16 0 28.5 -12.5t12.5 -28.5q0 -18 -12.5 -29.5t-28.5 -11.5h-772 q-16 0 -28.5 12.5t-12.5 28.5zM389 1692q0 20 12.5 34.5t34.5 14.5q25 0 45 -17l185 -137q18 -14 18 -30q0 -10 -6 -17.5t-18 -7.5q-14 0 -43 14l-199 97q-29 16 -29 49z" />
<glyph unicode="&#xc9;" horiz-adv-x="1161" d="M205 41v1352q0 16 12 28.5t29 12.5h772q16 0 28.5 -12.5t12.5 -28.5q0 -18 -12.5 -29.5t-28.5 -11.5h-727v-572h635q16 0 28.5 -12t12.5 -29q0 -18 -12.5 -29.5t-28.5 -11.5h-635v-616h727q16 0 28.5 -12.5t12.5 -28.5q0 -18 -12.5 -29.5t-28.5 -11.5h-772 q-16 0 -28.5 12.5t-12.5 28.5zM643 1557q0 16 19 30l184 137q20 16 45 17q23 0 35 -14.5t12 -34.5q0 -33 -29 -49l-198 -97q-29 -14 -43 -14q-13 0 -19 7t-6 18z" />
<glyph unicode="&#xca;" horiz-adv-x="1161" d="M205 41v1352q0 16 12 28.5t29 12.5h772q16 0 28.5 -12.5t12.5 -28.5q0 -18 -12.5 -29.5t-28.5 -11.5h-727v-572h635q16 0 28.5 -12t12.5 -29q0 -18 -12.5 -29.5t-28.5 -11.5h-635v-616h727q16 0 28.5 -12.5t12.5 -28.5q0 -18 -12.5 -29.5t-28.5 -11.5h-772 q-16 0 -28.5 12.5t-12.5 28.5zM420 1597q0 12 12 25l166 176q14 14 23.5 19t25.5 5h21q16 0 25.5 -5t23.5 -19l166 -174q12 -13 12 -25q0 -10 -7 -17t-18 -7q-14 0 -38 20l-181 139l-168 -141q-25 -20 -39 -20q-10 0 -17 7t-7 17z" />
<glyph unicode="&#xcb;" horiz-adv-x="1161" d="M205 41v1352q0 16 12 28.5t29 12.5h772q16 0 28.5 -12.5t12.5 -28.5q0 -18 -12.5 -29.5t-28.5 -11.5h-727v-572h635q16 0 28.5 -12t12.5 -29q0 -18 -12.5 -29.5t-28.5 -11.5h-635v-616h727q16 0 28.5 -12.5t12.5 -28.5q0 -18 -12.5 -29.5t-28.5 -11.5h-772 q-16 0 -28.5 12.5t-12.5 28.5zM421 1671v17q0 33 20.5 53t53.5 20q29 0 48.5 -20.5t19.5 -52.5v-17q0 -33 -19.5 -53.5t-50.5 -20.5q-33 0 -52.5 20.5t-19.5 53.5zM755 1671v17q0 33 20.5 53t53.5 20q29 0 48.5 -20.5t19.5 -52.5v-17q0 -33 -19.5 -53.5t-50.5 -20.5 q-33 0 -52.5 20.5t-19.5 53.5z" />
<glyph unicode="&#xcc;" horiz-adv-x="495" d="M-23 1692q0 20 12.5 34.5t34.5 14.5q25 0 45 -17l185 -137q18 -14 18 -30q0 -10 -6 -17.5t-18 -7.5q-14 0 -43 14l-199 97q-29 16 -29 49zM205 43v1348q0 18 12 30.5t31 12.5q18 0 30.5 -12.5t12.5 -30.5v-1348q-2 -18 -14.5 -30.5t-28.5 -12.5q-20 0 -31.5 12.5 t-11.5 30.5z" />
<glyph unicode="&#xcd;" horiz-adv-x="495" d="M205 43v1348q0 18 12 30.5t31 12.5q18 0 30.5 -12.5t12.5 -30.5v-1348q-2 -18 -14.5 -30.5t-28.5 -12.5q-20 0 -31.5 12.5t-11.5 30.5zM231 1557q0 16 19 30l184 137q20 16 45 17q23 0 35 -14.5t12 -34.5q0 -33 -29 -49l-198 -97q-29 -14 -43 -14q-13 0 -19 7t-6 18z" />
<glyph unicode="&#xce;" horiz-adv-x="495" d="M8 1597q0 12 12 25l166 176q14 14 23.5 19t25.5 5h21q16 0 25.5 -5t23.5 -19l166 -174q12 -13 12 -25q0 -10 -7 -17t-18 -7q-14 0 -38 20l-181 139l-168 -141q-25 -20 -39 -20q-10 0 -17 7t-7 17zM205 43v1348q0 18 12 30.5t31 12.5q18 0 30.5 -12.5t12.5 -30.5v-1348 q-2 -18 -14.5 -30.5t-28.5 -12.5q-20 0 -31.5 12.5t-11.5 30.5z" />
<glyph unicode="&#xcf;" horiz-adv-x="495" d="M10 1671v17q0 33 20.5 53t53.5 20q29 0 48.5 -20.5t19.5 -52.5v-17q0 -33 -19.5 -53.5t-50.5 -20.5q-33 0 -52.5 20.5t-19.5 53.5zM205 43v1348q0 18 12 30.5t31 12.5q18 0 30.5 -12.5t12.5 -30.5v-1348q-2 -18 -14.5 -30.5t-28.5 -12.5q-20 0 -31.5 12.5t-11.5 30.5z M344 1671v17q0 33 20.5 53t53.5 20q29 0 48.5 -20.5t19.5 -52.5v-17q0 -33 -19.5 -53.5t-50.5 -20.5q-33 0 -52.5 20.5t-19.5 53.5z" />
<glyph unicode="&#xd0;" horiz-adv-x="1474" d="M49 719q0 39 41 39h115v635q0 16 12 28.5t29 12.5h532q197 0 331 -98.5t198.5 -261.5t64.5 -357q0 -203 -64.5 -365t-197.5 -257t-332 -95h-532q-16 0 -28.5 12.5t-12.5 28.5v639h-115q-41 0 -41 39zM291 82h467q266 0 397 175t131 460q0 174 -56 318.5t-174 230.5 t-298 86h-467v-594h127q41 0 41 -41q0 -37 -41 -37h-127v-598z" />
<glyph unicode="&#xd1;" horiz-adv-x="1484" d="M205 35v1358q0 20 11 30.5t26 10.5q18 0 30 -15l930 -1267v1243q0 16 11.5 27.5t27.5 11.5q19 0 29 -11.5t10 -27.5v-1350q0 -23 -12.5 -34t-30.5 -11q-20 0 -33 16l-921 1260v-1241q0 -14 -11.5 -24.5t-27.5 -10.5q-18 0 -28.5 10t-10.5 25zM453 1636q0 16 6 37 q16 63 61.5 94t100.5 31q31 0 63.5 -15.5t85.5 -47.5q47 -29 73 -41.5t48 -12.5q31 0 50.5 25t25.5 68q2 16 11 26t26 10q33 0 33 -38q0 -6 -5 -31q-31 -133 -157 -133q-27 0 -57.5 14t-79.5 45q-53 29 -78 41t-47 12q-66 0 -93 -90q-8 -29 -36 -28q-31 -1 -31 34z" />
<glyph unicode="&#xd2;" horiz-adv-x="1572" d="M102 717q0 215 87 383t243 261t354 93q199 0 354.5 -93t242.5 -261t87 -383t-87 -383t-242.5 -261t-354.5 -93t-354.5 93t-242.5 261t-87 383zM188 717q0 -193 76 -342.5t212 -231.5t310 -82t310.5 82t212 231.5t75.5 342.5q0 192 -75.5 341.5t-211.5 231.5t-311 82 q-174 0 -310 -82t-212 -231.5t-76 -341.5zM516 1692q0 20 12.5 34.5t34.5 14.5q25 0 45 -17l185 -137q18 -14 18 -30q0 -10 -6 -17.5t-18 -7.5q-14 0 -43 14l-199 97q-29 16 -29 49z" />
<glyph unicode="&#xd3;" horiz-adv-x="1572" d="M102 717q0 215 87 383t243 261t354 93q199 0 354.5 -93t242.5 -261t87 -383t-87 -383t-242.5 -261t-354.5 -93t-354.5 93t-242.5 261t-87 383zM188 717q0 -193 76 -342.5t212 -231.5t310 -82t310.5 82t212 231.5t75.5 342.5q0 192 -75.5 341.5t-211.5 231.5t-311 82 q-174 0 -310 -82t-212 -231.5t-76 -341.5zM770 1557q0 16 19 30l184 137q20 16 45 17q23 0 35 -14.5t12 -34.5q0 -33 -29 -49l-198 -97q-29 -14 -43 -14q-13 0 -19 7t-6 18z" />
<glyph unicode="&#xd4;" horiz-adv-x="1572" d="M102 717q0 215 87 383t243 261t354 93q199 0 354.5 -93t242.5 -261t87 -383t-87 -383t-242.5 -261t-354.5 -93t-354.5 93t-242.5 261t-87 383zM188 717q0 -193 76 -342.5t212 -231.5t310 -82t310.5 82t212 231.5t75.5 342.5q0 192 -75.5 341.5t-211.5 231.5t-311 82 q-174 0 -310 -82t-212 -231.5t-76 -341.5zM547 1597q0 12 12 25l166 176q14 14 23.5 19t25.5 5h21q16 0 25.5 -5t23.5 -19l166 -174q12 -13 12 -25q0 -10 -7 -17t-18 -7q-14 0 -38 20l-181 139l-168 -141q-25 -20 -39 -20q-10 0 -17 7t-7 17z" />
<glyph unicode="&#xd5;" horiz-adv-x="1572" d="M102 717q0 215 87 383t243 261t354 93q199 0 354.5 -93t242.5 -261t87 -383t-87 -383t-242.5 -261t-354.5 -93t-354.5 93t-242.5 261t-87 383zM188 717q0 -193 76 -342.5t212 -231.5t310 -82t310.5 82t212 231.5t75.5 342.5q0 192 -75.5 341.5t-211.5 231.5t-311 82 q-174 0 -310 -82t-212 -231.5t-76 -341.5zM496 1636q0 16 6 37q16 63 61.5 94t100.5 31q31 0 63.5 -15.5t85.5 -47.5q47 -29 73 -41.5t48 -12.5q31 0 50.5 25t25.5 68q2 16 11 26t26 10q33 0 33 -38q0 -6 -5 -31q-31 -133 -157 -133q-27 0 -57.5 14t-79.5 45q-53 29 -78 41 t-47 12q-66 0 -93 -90q-8 -29 -36 -28q-31 -1 -31 34z" />
<glyph unicode="&#xd6;" horiz-adv-x="1572" d="M102 717q0 215 87 383t243 261t354 93q199 0 354.5 -93t242.5 -261t87 -383t-87 -383t-242.5 -261t-354.5 -93t-354.5 93t-242.5 261t-87 383zM188 717q0 -193 76 -342.5t212 -231.5t310 -82t310.5 82t212 231.5t75.5 342.5q0 192 -75.5 341.5t-211.5 231.5t-311 82 q-174 0 -310 -82t-212 -231.5t-76 -341.5zM548 1671v17q0 33 20.5 53t53.5 20q29 0 48.5 -20.5t19.5 -52.5v-17q0 -33 -19.5 -53.5t-50.5 -20.5q-33 0 -52.5 20.5t-19.5 53.5zM882 1671v17q0 33 20.5 53t53.5 20q29 0 48.5 -20.5t19.5 -52.5v-17q0 -33 -19.5 -53.5 t-50.5 -20.5q-33 0 -52.5 20.5t-19.5 53.5z" />
<glyph unicode="&#xd8;" horiz-adv-x="1476" d="M100 -6q0 12 11 26l159 193q-82 96 -125 225t-43 279q0 215 87 383t243 261t354 93q233 0 410 -131l102 125q12 14 20.5 18t24.5 4q12 0 23.5 -9t11.5 -23q0 -16 -12 -31l-111 -133q103 -100 159 -242.5t56 -314.5q0 -215 -87 -383t-242.5 -261t-354.5 -93 q-137 0 -254.5 45t-207.5 131l-138 -164q-12 -16 -22 -24.5t-29 -8.5q-14 0 -24.5 10.5t-10.5 24.5zM188 717q1 -262 138 -438l815 981q-152 113 -355 112q-174 0 -310 -82t-212 -231.5t-76 -341.5zM377 221q80 -78 184.5 -119t224.5 -41q175 0 311 82t211.5 231.5 t75.5 342.5q0 152 -48 278.5t-136 212.5z" />
<glyph unicode="&#xd9;" horiz-adv-x="1464" d="M205 508v885q0 18 12 29.5t31 11.5q18 0 30.5 -12.5t12.5 -28.5v-885q0 -121 59.5 -223.5t160.5 -163t222 -60.5t222.5 60.5t162 163t60.5 223.5v885q0 16 11 28.5t30 12.5q18 0 29.5 -12.5t11.5 -28.5v-885q0 -143 -72 -264t-193 -192.5t-262 -71.5q-143 0 -264 71.5 t-192.5 192.5t-71.5 264zM463 1692q0 20 12.5 34.5t34.5 14.5q25 0 45 -17l185 -137q18 -14 18 -30q0 -10 -6 -17.5t-18 -7.5q-14 0 -43 14l-199 97q-29 16 -29 49z" />
<glyph unicode="&#xda;" horiz-adv-x="1464" d="M205 508v885q0 18 12 29.5t31 11.5q18 0 30.5 -12.5t12.5 -28.5v-885q0 -121 59.5 -223.5t160.5 -163t222 -60.5t222.5 60.5t162 163t60.5 223.5v885q0 16 11 28.5t30 12.5q18 0 29.5 -12.5t11.5 -28.5v-885q0 -143 -72 -264t-193 -192.5t-262 -71.5q-143 0 -264 71.5 t-192.5 192.5t-71.5 264zM717 1557q0 16 19 30l184 137q20 16 45 17q23 0 35 -14.5t12 -34.5q0 -33 -29 -49l-198 -97q-29 -14 -43 -14q-13 0 -19 7t-6 18z" />
<glyph unicode="&#xdb;" horiz-adv-x="1464" d="M205 508v885q0 18 12 29.5t31 11.5q18 0 30.5 -12.5t12.5 -28.5v-885q0 -121 59.5 -223.5t160.5 -163t222 -60.5t222.5 60.5t162 163t60.5 223.5v885q0 16 11 28.5t30 12.5q18 0 29.5 -12.5t11.5 -28.5v-885q0 -143 -72 -264t-193 -192.5t-262 -71.5q-143 0 -264 71.5 t-192.5 192.5t-71.5 264zM494 1597q0 12 12 25l166 176q14 14 23.5 19t25.5 5h21q16 0 25.5 -5t23.5 -19l166 -174q12 -13 12 -25q0 -10 -7 -17t-18 -7q-14 0 -38 20l-181 139l-168 -141q-25 -20 -39 -20q-10 0 -17 7t-7 17z" />
<glyph unicode="&#xdc;" horiz-adv-x="1464" d="M205 508v885q0 18 12 29.5t31 11.5q18 0 30.5 -12.5t12.5 -28.5v-885q0 -121 59.5 -223.5t160.5 -163t222 -60.5t222.5 60.5t162 163t60.5 223.5v885q0 16 11 28.5t30 12.5q18 0 29.5 -12.5t11.5 -28.5v-885q0 -143 -72 -264t-193 -192.5t-262 -71.5q-143 0 -264 71.5 t-192.5 192.5t-71.5 264zM495 1671v17q0 33 20.5 53t53.5 20q29 0 48.5 -20.5t19.5 -52.5v-17q0 -33 -19.5 -53.5t-50.5 -20.5q-33 0 -52.5 20.5t-19.5 53.5zM829 1671v17q0 33 20.5 53t53.5 20q29 0 48.5 -20.5t19.5 -52.5v-17q0 -33 -19.5 -53.5t-50.5 -20.5 q-33 0 -52.5 20.5t-19.5 53.5z" />
<glyph unicode="&#xdd;" horiz-adv-x="1120" d="M41 1403q0 14 13.5 26.5t29.5 12.5q23 0 35 -19l442 -604l443 604q12 18 34 19q18 0 29.5 -13.5t11.5 -25.5q0 -11 -8 -27l-467 -635v-700q0 -16 -12 -28.5t-31 -12.5q-18 0 -30.5 12.5t-12.5 28.5v692l-469 643q-8 10 -8 27zM545 1557q0 16 19 30l184 137q20 16 45 17 q23 0 35 -14.5t12 -34.5q0 -33 -29 -49l-198 -97q-29 -14 -43 -14q-13 0 -19 7t-6 18z" />
<glyph unicode="&#xde;" horiz-adv-x="1193" d="M205 41v1434q0 16 12 28.5t29 12.5q18 0 29.5 -12.5t11.5 -28.5v-273h428q174 0 280.5 -108.5t106.5 -282.5q0 -115 -48 -208t-136.5 -145t-202.5 -52h-428v-365q0 -16 -12.5 -28.5t-28.5 -12.5q-18 0 -29.5 12.5t-11.5 28.5zM287 487h428q137 0 219 91.5t82 232.5 t-81 225t-220 84h-428v-633z" />
<glyph unicode="&#xdf;" horiz-adv-x="1200" d="M57 991q0 16 11.5 27.5t27.5 11.5h109q4 109 44 213.5t128 174t225 69.5q158 0 242 -81t84 -196q0 -59 -41 -135t-123 -106q151 -49 244.5 -177t93.5 -307q0 -143 -61.5 -258.5t-164 -181t-223.5 -65.5q-119 0 -172 32q-27 14 -26 37q0 12 6 21q12 23 33 22q12 0 28 -10 q53 -31 131 -31q92 0 176 53.5t137.5 150.5t53.5 220q0 195 -105.5 301.5t-252.5 138.5q-20 4 -32 18.5t-12 31.5q0 12 9.5 24t25.5 17q96 18 144.5 80.5t48.5 119.5q0 82 -65.5 140.5t-178.5 58.5q-164 0 -239.5 -120t-75.5 -275l-4 -969q0 -41 -41 -41t-41 41l4 911h-109 q-14 0 -26.5 12.5t-12.5 26.5z" />
<glyph unicode="&#xe0;" d="M98 522q0 152 62.5 274t171 190.5t241.5 68.5t240 -70t154 -186v182q0 16 11 28.5t30 12.5q18 0 29.5 -12.5t11.5 -28.5v-940q0 -16 -12.5 -28.5t-28.5 -12.5q-18 0 -29.5 12.5t-11.5 28.5v184q-51 -104 -158 -174.5t-236 -70.5q-135 0 -243.5 70.5t-170 194.5t-61.5 277 zM180 522q0 -131 51.5 -237.5t141.5 -167t205 -60.5q112 0 203 60.5t142.5 167t51.5 237.5q0 125 -51.5 229.5t-142.5 165t-203 60.5q-113 0 -204 -58.5t-142.5 -162t-51.5 -234.5zM379 1362q0 47 45 47q35 0 53 -33l127 -190q10 -16 10 -27q0 -10 -6 -17t-16 -7 q-23 -1 -54 30l-145 162q-14 18 -14 35z" />
<glyph unicode="&#xe1;" d="M98 522q0 152 62.5 274t171 190.5t241.5 68.5t240 -70t154 -186v182q0 16 11 28.5t30 12.5q18 0 29.5 -12.5t11.5 -28.5v-940q0 -16 -12.5 -28.5t-28.5 -12.5q-18 0 -29.5 12.5t-11.5 28.5v184q-51 -104 -158 -174.5t-236 -70.5q-135 0 -243.5 70.5t-170 194.5t-61.5 277 zM180 522q0 -131 51.5 -237.5t141.5 -167t205 -60.5q112 0 203 60.5t142.5 167t51.5 237.5q0 125 -51.5 229.5t-142.5 165t-203 60.5q-113 0 -204 -58.5t-142.5 -162t-51.5 -234.5zM530 1143q0 10 10 26l127 191q18 33 54 33q23 0 38 -13.5t15 -38.5q0 -16 -14 -34 l-154 -158q-31 -31 -53 -31q-10 0 -16.5 7.5t-6.5 17.5z" />
<glyph unicode="&#xe2;" d="M98 522q0 152 62.5 274t171 190.5t241.5 68.5t240 -70t154 -186v182q0 16 11 28.5t30 12.5q18 0 29.5 -12.5t11.5 -28.5v-940q0 -16 -12.5 -28.5t-28.5 -12.5q-18 0 -29.5 12.5t-11.5 28.5v184q-51 -104 -158 -174.5t-236 -70.5q-135 0 -243.5 70.5t-170 194.5t-61.5 277 zM180 522q0 -131 51.5 -237.5t141.5 -167t205 -60.5q112 0 203 60.5t142.5 167t51.5 237.5q0 125 -51.5 229.5t-142.5 165t-203 60.5q-113 0 -204 -58.5t-142.5 -162t-51.5 -234.5zM356 1185q0 12 13 25l166 176q16 25 49 25h20q33 0 49 -25l166 -174q13 -13 13 -25 q0 -10 -7.5 -17t-17.5 -7q-14 0 -39 20l-180 140l-168 -142q-25 -20 -39 -20q-10 0 -17.5 7t-7.5 17z" />
<glyph unicode="&#xe3;" d="M98 522q0 152 62.5 274t171 190.5t241.5 68.5t240 -70t154 -186v182q0 16 11 28.5t30 12.5q18 0 29.5 -12.5t11.5 -28.5v-940q0 -16 -12.5 -28.5t-28.5 -12.5q-18 0 -29.5 12.5t-11.5 28.5v184q-51 -104 -158 -174.5t-236 -70.5q-135 0 -243.5 70.5t-170 194.5t-61.5 277 zM180 522q0 -131 51.5 -237.5t141.5 -167t205 -60.5q112 0 203 60.5t142.5 167t51.5 237.5q0 125 -51.5 229.5t-142.5 165t-203 60.5q-113 0 -204 -58.5t-142.5 -162t-51.5 -234.5zM297 1213q0 6 8 43q16 63 61.5 94t100.5 31q31 0 65.5 -15.5t83.5 -46.5q43 -25 71 -38 t50 -13q61 0 74 88q2 16 12 26.5t27 10.5q35 0 35 -31q0 -10 -2 -20t-5 -19q-29 -133 -157 -133q-27 0 -59.5 14.5t-77.5 43.5q-10 6 -39 21.5t-49.5 22.5t-36.5 7q-66 0 -90 -86q-8 -29 -39 -29q-33 0 -33 29z" />
<glyph unicode="&#xe4;" d="M98 522q0 152 62.5 274t171 190.5t241.5 68.5t240 -70t154 -186v182q0 16 11 28.5t30 12.5q18 0 29.5 -12.5t11.5 -28.5v-940q0 -16 -12.5 -28.5t-28.5 -12.5q-18 0 -29.5 12.5t-11.5 28.5v184q-51 -104 -158 -174.5t-236 -70.5q-135 0 -243.5 70.5t-170 194.5t-61.5 277 zM180 522q0 -131 51.5 -237.5t141.5 -167t205 -60.5q112 0 203 60.5t142.5 167t51.5 237.5q0 125 -51.5 229.5t-142.5 165t-203 60.5q-113 0 -204 -58.5t-142.5 -162t-51.5 -234.5zM328 1280v16q0 33 20.5 53.5t52.5 20.5q29 0 48.5 -20.5t19.5 -53.5v-16q0 -33 -19.5 -53.5 t-50.5 -20.5q-33 0 -52 20.5t-19 53.5zM661 1280v16q0 33 20.5 53.5t53.5 20.5q29 0 48.5 -20.5t19.5 -53.5v-16q0 -33 -19.5 -53.5t-50.5 -20.5q-33 0 -52.5 20.5t-19.5 53.5z" />
<glyph unicode="&#xe5;" d="M98 522q0 152 62.5 274t171 190.5t241.5 68.5t240 -70t154 -186v182q0 16 11 28.5t30 12.5q18 0 29.5 -12.5t11.5 -28.5v-940q0 -16 -12.5 -28.5t-28.5 -12.5q-18 0 -29.5 12.5t-11.5 28.5v184q-51 -104 -158 -174.5t-236 -70.5q-135 0 -243.5 70.5t-170 194.5t-61.5 277 zM180 522q0 -131 51.5 -237.5t141.5 -167t205 -60.5q112 0 203 60.5t142.5 167t51.5 237.5q0 125 -51.5 229.5t-142.5 165t-203 60.5q-113 0 -204 -58.5t-142.5 -162t-51.5 -234.5zM389 1319q0 80 60.5 136t140.5 56t140.5 -56t60.5 -136t-60.5 -136.5t-140.5 -56.5 t-140.5 56.5t-60.5 136.5zM463 1319q0 -51 37 -89t90 -38q51 0 89 38t38 89q0 53 -38 90t-89 37q-53 0 -90 -37t-37 -90z" />
<glyph unicode="&#xe6;" horiz-adv-x="1816" d="M98 279q0 162 144.5 253t412.5 91h144v135q0 123 -73 171t-181 48q-98 0 -198.5 -58.5t-149.5 -132.5q-14 -18 -35 -18q-14 0 -24.5 11.5t-10.5 25.5t8 24q70 90 182.5 158t227.5 68q137 0 226 -54.5t99 -175.5q63 109 167 169.5t218 60.5q121 0 224.5 -52.5t169 -157 t69.5 -257.5q0 -16 -12 -29.5t-29 -13.5h-805v-27q0 -127 51.5 -232.5t152 -167t241.5 -61.5q98 0 185 48.5t136 121.5q16 18 35 19q15 0 25 -11.5t10 -25.5t-8 -25q-68 -90 -168 -147t-215 -57q-154 0 -273.5 67.5t-185.5 188.5q-182 -256 -452 -256q-76 0 -147 34.5 t-116 102t-45 162.5zM180 287q0 -74 35 -126t89 -78t110 -26q82 0 166 41t149.5 100.5t93.5 114.5q-31 90 -30 199v33h-134q-229 0 -354 -68.5t-125 -189.5zM881 623h753v18q-10 104 -66.5 179t-139 114t-173.5 39q-75 0 -154 -40t-139.5 -119t-80.5 -191z" />
<glyph unicode="&#xe7;" horiz-adv-x="1050" d="M98 518q0 143 64.5 266t182.5 197t269 74q88 0 171 -20.5t133.5 -54.5t50.5 -71q0 -16 -11.5 -28.5t-27.5 -12.5q-18 0 -27.5 6.5t-25.5 22.5q-27 31 -56 45q-74 35 -209 35q-117 0 -216 -61.5t-157.5 -167t-58.5 -230.5q0 -131 54.5 -236.5t153.5 -165t224 -59.5 q82 0 129 14.5t95 41.5q33 20 57 45q10 10 20.5 17t20.5 7q16 0 25.5 -10t9.5 -27q0 -27 -43 -64.5t-120 -67t-173 -33.5l-117 -238q-14 -31 -43 -31q-18 0 -45 16.5t-27 39.5q0 18 11 28l151 187q-137 10 -242.5 81.5t-164 190.5t-58.5 264z" />
<glyph unicode="&#xe8;" horiz-adv-x="1122" d="M98 512q0 164 64.5 288t171 189.5t227.5 65.5t224.5 -52.5t169 -157t69.5 -257.5q0 -16 -12.5 -29.5t-28.5 -13.5h-805v-27q0 -127 51.5 -232.5t151.5 -167t242 -61.5q98 0 185 48.5t136 121.5q14 18 35 19q14 0 24.5 -11.5t10.5 -25.5t-8 -25q-68 -90 -168.5 -147 t-214.5 -57q-154 0 -273 65.5t-185.5 186t-66.5 280.5zM186 623h754v18q-10 104 -66.5 179t-139.5 114t-173 39q-76 0 -154.5 -40t-139 -119t-81.5 -191zM365 1362q0 47 45 47q35 0 53 -33l127 -190q10 -16 10 -27q0 -10 -6 -17t-16 -7q-23 -1 -54 30l-145 162 q-14 18 -14 35z" />
<glyph unicode="&#xe9;" horiz-adv-x="1122" d="M98 512q0 164 64.5 288t171 189.5t227.5 65.5t224.5 -52.5t169 -157t69.5 -257.5q0 -16 -12.5 -29.5t-28.5 -13.5h-805v-27q0 -127 51.5 -232.5t151.5 -167t242 -61.5q98 0 185 48.5t136 121.5q14 18 35 19q14 0 24.5 -11.5t10.5 -25.5t-8 -25q-68 -90 -168.5 -147 t-214.5 -57q-154 0 -273 65.5t-185.5 186t-66.5 280.5zM186 623h754v18q-10 104 -66.5 179t-139.5 114t-173 39q-76 0 -154.5 -40t-139 -119t-81.5 -191zM516 1143q0 10 10 26l127 191q18 33 54 33q23 0 38 -13.5t15 -38.5q0 -16 -14 -34l-154 -158q-31 -31 -53 -31 q-10 0 -16.5 7.5t-6.5 17.5z" />
<glyph unicode="&#xea;" horiz-adv-x="1122" d="M98 512q0 164 64.5 288t171 189.5t227.5 65.5t224.5 -52.5t169 -157t69.5 -257.5q0 -16 -12.5 -29.5t-28.5 -13.5h-805v-27q0 -127 51.5 -232.5t151.5 -167t242 -61.5q98 0 185 48.5t136 121.5q14 18 35 19q14 0 24.5 -11.5t10.5 -25.5t-8 -25q-68 -90 -168.5 -147 t-214.5 -57q-154 0 -273 65.5t-185.5 186t-66.5 280.5zM186 623h754v18q-10 104 -66.5 179t-139.5 114t-173 39q-76 0 -154.5 -40t-139 -119t-81.5 -191zM342 1185q0 12 13 25l166 176q16 25 49 25h20q33 0 49 -25l166 -174q13 -13 13 -25q0 -10 -7.5 -17t-17.5 -7 q-14 0 -39 20l-180 140l-168 -142q-25 -20 -39 -20q-10 0 -17.5 7t-7.5 17z" />
<glyph unicode="&#xeb;" horiz-adv-x="1122" d="M98 512q0 164 64.5 288t171 189.5t227.5 65.5t224.5 -52.5t169 -157t69.5 -257.5q0 -16 -12.5 -29.5t-28.5 -13.5h-805v-27q0 -127 51.5 -232.5t151.5 -167t242 -61.5q98 0 185 48.5t136 121.5q14 18 35 19q14 0 24.5 -11.5t10.5 -25.5t-8 -25q-68 -90 -168.5 -147 t-214.5 -57q-154 0 -273 65.5t-185.5 186t-66.5 280.5zM186 623h754v18q-10 104 -66.5 179t-139.5 114t-173 39q-76 0 -154.5 -40t-139 -119t-81.5 -191zM314 1280v16q0 33 20.5 53.5t52.5 20.5q29 0 48.5 -20.5t19.5 -53.5v-16q0 -33 -19.5 -53.5t-50.5 -20.5 q-33 0 -52 20.5t-19 53.5zM647 1280v16q0 33 20.5 53.5t53.5 20.5q29 0 48.5 -20.5t19.5 -53.5v-16q0 -33 -19.5 -53.5t-50.5 -20.5q-33 0 -52.5 20.5t-19.5 53.5z" />
<glyph unicode="&#xec;" horiz-adv-x="421" d="M0 1362q0 47 45 47q35 0 53 -33l127 -190q10 -16 10 -27q0 -10 -6 -17t-16 -7q-23 -1 -54 30l-145 162q-14 18 -14 35zM170 41v973q0 16 12.5 28.5t28.5 12.5q18 0 29.5 -12.5t11.5 -28.5v-973q0 -16 -12.5 -28.5t-28.5 -12.5q-18 0 -29.5 12.5t-11.5 28.5z" />
<glyph unicode="&#xed;" horiz-adv-x="421" d="M151 1143q0 10 10 26l127 191q18 33 54 33q23 0 38 -13.5t15 -38.5q0 -16 -14 -34l-154 -158q-31 -31 -53 -31q-10 0 -16.5 7.5t-6.5 17.5zM170 41v973q0 16 12.5 28.5t28.5 12.5q18 0 29.5 -12.5t11.5 -28.5v-973q0 -16 -12.5 -28.5t-28.5 -12.5q-18 0 -29.5 12.5 t-11.5 28.5z" />
<glyph unicode="&#xee;" horiz-adv-x="421" d="M-23 1185q0 12 13 25l166 176q16 25 49 25h20q33 0 49 -25l166 -174q13 -13 13 -25q0 -10 -7.5 -17t-17.5 -7q-14 0 -39 20l-180 140l-168 -142q-25 -20 -39 -20q-10 0 -17.5 7t-7.5 17zM170 41v973q0 16 12.5 28.5t28.5 12.5q18 0 29.5 -12.5t11.5 -28.5v-973 q0 -16 -12.5 -28.5t-28.5 -12.5q-18 0 -29.5 12.5t-11.5 28.5z" />
<glyph unicode="&#xef;" horiz-adv-x="421" d="M-51 1280v16q0 33 20.5 53.5t52.5 20.5q29 0 48.5 -20.5t19.5 -53.5v-16q0 -33 -19.5 -53.5t-50.5 -20.5q-33 0 -52 20.5t-19 53.5zM170 41v973q0 16 12.5 28.5t28.5 12.5q18 0 29.5 -12.5t11.5 -28.5v-973q0 -16 -12.5 -28.5t-28.5 -12.5q-18 0 -29.5 12.5t-11.5 28.5z M282 1280v16q0 33 20.5 53.5t53.5 20.5q29 0 48.5 -20.5t19.5 -53.5v-16q0 -33 -19.5 -53.5t-50.5 -20.5q-33 0 -52.5 20.5t-19.5 53.5z" />
<glyph unicode="&#xf0;" horiz-adv-x="1148" d="M98 535q0 141 63.5 259.5t172 187.5t239.5 69q115 0 201 -53.5t146 -143.5q-61 229 -191 379l-4 -2l-252 -98l-16 -5q-27 0 -37 27q-2 6 -2 16q0 27 26 37l218 84l4 2q-127 111 -291 140q-33 10 -33 36q0 45 37 46q10 0 14 -3q201 -43 355 -188l182 72q12 4 18 4 q10 0 20.5 -7.5t14.5 -19.5q2 -6 2 -16q0 -27 -27 -37l-151 -59q123 -148 183.5 -339.5t60.5 -338.5q0 -168 -63.5 -301t-173 -209t-241.5 -76q-129 0 -238.5 72.5t-173 196.5t-63.5 268zM180 535q0 -121 53.5 -226.5t144.5 -169t195 -63.5q105 0 196 63.5t144.5 169 t53.5 226.5q0 113 -53.5 214t-143.5 162.5t-197 61.5q-109 0 -198.5 -58.5t-142 -159t-52.5 -220.5z" />
<glyph unicode="&#xf1;" horiz-adv-x="1171" d="M170 41v940q0 16 12.5 28.5t28.5 12.5q18 0 29.5 -12.5t11.5 -28.5v-137q59 92 166.5 151.5t216.5 59.5q182 0 274 -107.5t92 -279.5v-627q0 -16 -12 -28.5t-28 -12.5q-18 0 -29.5 12.5t-11.5 28.5v618q0 139 -73 228.5t-220 89.5q-90 0 -177.5 -43t-142.5 -117t-55 -158 v-618q0 -16 -12.5 -28.5t-28.5 -12.5q-18 0 -29.5 12.5t-11.5 28.5zM293 1213q0 6 8 43q16 63 61.5 94t100.5 31q31 0 65.5 -15.5t83.5 -46.5q43 -25 71 -38t50 -13q61 0 74 88q2 16 12 26.5t27 10.5q35 0 35 -31q0 -10 -2 -20t-5 -19q-29 -133 -157 -133q-27 0 -59.5 14.5 t-77.5 43.5q-10 6 -39 21.5t-49.5 22.5t-36.5 7q-66 0 -90 -86q-8 -29 -39 -29q-33 0 -33 29z" />
<glyph unicode="&#xf2;" horiz-adv-x="1206" d="M98 516q0 152 66.5 274.5t181.5 193.5t258 71q141 0 257 -71t181.5 -193.5t65.5 -274.5q0 -151 -65.5 -273t-181.5 -192.5t-257 -70.5t-257 70.5t-182.5 193.5t-66.5 272zM180 516q0 -129 55.5 -233.5t152.5 -165t216 -60.5q121 0 217.5 59.5t150.5 165t54 234.5 q0 131 -54 235.5t-150.5 165t-217.5 60.5q-119 0 -216 -60.5t-152.5 -165t-55.5 -235.5zM394 1382q0 47 45 47q35 0 53 -33l127 -190q10 -16 10 -27q0 -10 -6 -17t-16 -7q-23 -1 -54 30l-145 162q-14 18 -14 35z" />
<glyph unicode="&#xf3;" horiz-adv-x="1206" d="M98 516q0 152 66.5 274.5t181.5 193.5t258 71q141 0 257 -71t181.5 -193.5t65.5 -274.5q0 -151 -65.5 -273t-181.5 -192.5t-257 -70.5t-257 70.5t-182.5 193.5t-66.5 272zM180 516q0 -129 55.5 -233.5t152.5 -165t216 -60.5q121 0 217.5 59.5t150.5 165t54 234.5 q0 131 -54 235.5t-150.5 165t-217.5 60.5q-119 0 -216 -60.5t-152.5 -165t-55.5 -235.5zM545 1163q0 10 10 26l127 191q18 33 54 33q23 0 38 -13.5t15 -38.5q0 -16 -14 -34l-154 -158q-31 -31 -53 -31q-10 0 -16.5 7.5t-6.5 17.5z" />
<glyph unicode="&#xf4;" horiz-adv-x="1206" d="M98 516q0 152 66.5 274.5t181.5 193.5t258 71q141 0 257 -71t181.5 -193.5t65.5 -274.5q0 -151 -65.5 -273t-181.5 -192.5t-257 -70.5t-257 70.5t-182.5 193.5t-66.5 272zM180 516q0 -129 55.5 -233.5t152.5 -165t216 -60.5q121 0 217.5 59.5t150.5 165t54 234.5 q0 131 -54 235.5t-150.5 165t-217.5 60.5q-119 0 -216 -60.5t-152.5 -165t-55.5 -235.5zM370 1206q0 12 13 25l166 176q16 25 49 25h20q33 0 49 -25l166 -174q13 -13 13 -25q0 -10 -7.5 -17t-17.5 -7q-14 0 -39 20l-180 140l-168 -142q-25 -20 -39 -20q-10 0 -17.5 7 t-7.5 17z" />
<glyph unicode="&#xf5;" horiz-adv-x="1206" d="M98 516q0 152 66.5 274.5t181.5 193.5t258 71q141 0 257 -71t181.5 -193.5t65.5 -274.5q0 -151 -65.5 -273t-181.5 -192.5t-257 -70.5t-257 70.5t-182.5 193.5t-66.5 272zM180 516q0 -129 55.5 -233.5t152.5 -165t216 -60.5q121 0 217.5 59.5t150.5 165t54 234.5 q0 131 -54 235.5t-150.5 165t-217.5 60.5q-119 0 -216 -60.5t-152.5 -165t-55.5 -235.5zM311 1233q0 6 8 43q16 63 61.5 94t100.5 31q31 0 65.5 -15.5t83.5 -46.5q43 -25 71 -38t50 -13q61 0 74 88q2 16 12 26.5t27 10.5q35 0 35 -31q0 -10 -2 -20t-5 -19 q-29 -133 -157 -133q-27 0 -59.5 14.5t-77.5 43.5q-10 6 -39 21.5t-49.5 22.5t-36.5 7q-66 0 -90 -86q-8 -29 -39 -29q-33 0 -33 29z" />
<glyph unicode="&#xf6;" horiz-adv-x="1206" d="M98 516q0 152 66.5 274.5t181.5 193.5t258 71q141 0 257 -71t181.5 -193.5t65.5 -274.5q0 -151 -65.5 -273t-181.5 -192.5t-257 -70.5t-257 70.5t-182.5 193.5t-66.5 272zM180 516q0 -129 55.5 -233.5t152.5 -165t216 -60.5q121 0 217.5 59.5t150.5 165t54 234.5 q0 131 -54 235.5t-150.5 165t-217.5 60.5q-119 0 -216 -60.5t-152.5 -165t-55.5 -235.5zM342 1300v16q0 33 20.5 53.5t52.5 20.5q29 0 48.5 -20.5t19.5 -53.5v-16q0 -33 -19.5 -53.5t-50.5 -20.5q-33 0 -52 20.5t-19 53.5zM675 1300v16q0 33 20.5 53.5t53.5 20.5 q29 0 48.5 -20.5t19.5 -53.5v-16q0 -33 -19.5 -53.5t-50.5 -20.5q-33 0 -52.5 20.5t-19.5 53.5z" />
<glyph unicode="&#xf7;" horiz-adv-x="1114" d="M102 406q0 16 12.5 27t30.5 11h824q18 0 30.5 -12t12.5 -31q0 -16 -12.5 -27.5t-30.5 -11.5h-824q-18 0 -30.5 12.5t-12.5 31.5zM477 49q0 29 20.5 50.5t49.5 21.5t50 -21.5t21 -50.5t-21.5 -49t-49.5 -20q-29 0 -49.5 20t-20.5 49zM477 748q0 30 20.5 51.5t49.5 21.5 t50 -21.5t21 -51.5q0 -29 -21.5 -49.5t-49.5 -20.5q-29 0 -49.5 20.5t-20.5 49.5z" />
<glyph unicode="&#xf8;" horiz-adv-x="1222" d="M57 -10q0 16 11 28l137 160q-106 145 -107 338q0 152 66.5 274.5t181.5 193.5t258 71q156 0 279 -84l100 116q12 16 31 17q16 0 28.5 -12.5t12.5 -28.5q0 -18 -11 -29l-98 -114q76 -76 119 -179.5t43 -224.5q0 -152 -65.5 -273.5t-181.5 -192t-257 -70.5 q-100 0 -188 35.5t-158 101.5l-129 -152q-12 -16 -31 -16q-16 0 -28.5 12t-12.5 29zM180 516q0 -155 80 -274l571 667q-102 68 -227 68q-119 0 -216 -60.5t-152.5 -165t-55.5 -235.5zM311 178q57 -57 133 -89t160 -32q121 0 217.5 59.5t150.5 165t54 234.5q0 102 -35 191.5 t-96 150.5z" />
<glyph unicode="&#xf9;" horiz-adv-x="1153" d="M170 385v596q0 16 12.5 28.5t28.5 12.5q18 0 29.5 -12.5t11.5 -28.5v-596q0 -154 86 -236.5t237 -82.5q154 0 240 82.5t86 236.5v596q0 16 11.5 28.5t29.5 12.5q19 0 30 -12.5t11 -28.5v-596q0 -195 -109.5 -296t-298.5 -101q-188 0 -296.5 101t-108.5 296zM367 1362 q0 47 45 47q35 0 53 -33l127 -190q10 -16 10 -27q0 -10 -6 -17t-16 -7q-23 -1 -54 30l-145 162q-14 18 -14 35z" />
<glyph unicode="&#xfa;" horiz-adv-x="1153" d="M170 385v596q0 16 12.5 28.5t28.5 12.5q18 0 29.5 -12.5t11.5 -28.5v-596q0 -154 86 -236.5t237 -82.5q154 0 240 82.5t86 236.5v596q0 16 11.5 28.5t29.5 12.5q19 0 30 -12.5t11 -28.5v-596q0 -195 -109.5 -296t-298.5 -101q-188 0 -296.5 101t-108.5 296zM518 1143 q0 10 10 26l127 191q18 33 54 33q23 0 38 -13.5t15 -38.5q0 -16 -14 -34l-154 -158q-31 -31 -53 -31q-10 0 -16.5 7.5t-6.5 17.5z" />
<glyph unicode="&#xfb;" horiz-adv-x="1153" d="M170 385v596q0 16 12.5 28.5t28.5 12.5q18 0 29.5 -12.5t11.5 -28.5v-596q0 -154 86 -236.5t237 -82.5q154 0 240 82.5t86 236.5v596q0 16 11.5 28.5t29.5 12.5q19 0 30 -12.5t11 -28.5v-596q0 -195 -109.5 -296t-298.5 -101q-188 0 -296.5 101t-108.5 296zM344 1185 q0 12 13 25l166 176q16 25 49 25h20q33 0 49 -25l166 -174q13 -13 13 -25q0 -10 -7.5 -17t-17.5 -7q-14 0 -39 20l-180 140l-168 -142q-25 -20 -39 -20q-10 0 -17.5 7t-7.5 17z" />
<glyph unicode="&#xfc;" horiz-adv-x="1153" d="M170 385v596q0 16 12.5 28.5t28.5 12.5q18 0 29.5 -12.5t11.5 -28.5v-596q0 -154 86 -236.5t237 -82.5q154 0 240 82.5t86 236.5v596q0 16 11.5 28.5t29.5 12.5q19 0 30 -12.5t11 -28.5v-596q0 -195 -109.5 -296t-298.5 -101q-188 0 -296.5 101t-108.5 296zM316 1280v16 q0 33 20.5 53.5t52.5 20.5q29 0 48.5 -20.5t19.5 -53.5v-16q0 -33 -19.5 -53.5t-50.5 -20.5q-33 0 -52 20.5t-19 53.5zM649 1280v16q0 33 20.5 53.5t53.5 20.5q29 0 48.5 -20.5t19.5 -53.5v-16q0 -33 -19.5 -53.5t-50.5 -20.5q-33 0 -52.5 20.5t-19.5 53.5z" />
<glyph unicode="&#xfd;" horiz-adv-x="1150" d="M170 375v639q0 16 11.5 28.5t29.5 12.5t29.5 -12.5t11.5 -28.5v-639q0 -317 283 -318q88 0 173 46.5t138 120t53 151.5v639q0 16 11.5 28.5t29.5 12.5t29.5 -12.5t11.5 -28.5v-914q0 -154 -62.5 -269.5t-172 -178t-248.5 -62.5q-90 0 -165 21.5t-126 56.5q-37 25 -23 56 q14 25 35 24q10 0 19 -6q49 -31 117.5 -54.5t146.5 -23.5q117 0 207 55.5t140 154.5t50 226v93q-47 -92 -150.5 -152.5t-213.5 -60.5q-184 0 -274.5 105t-90.5 290zM516 1143q0 10 10 26l127 191q18 33 54 33q23 0 38 -13.5t15 -38.5q0 -16 -14 -34l-154 -158 q-31 -31 -53 -31q-10 0 -16.5 7.5t-6.5 17.5z" />
<glyph unicode="&#xfe;" d="M170 -369v1844q0 16 11.5 28.5t29.5 12.5t29.5 -12.5t11.5 -28.5v-670q61 117 163.5 173t229.5 56q135 0 243.5 -67.5t170 -186t61.5 -268.5q0 -147 -62.5 -267t-171 -188.5t-241.5 -68.5q-123 0 -225.5 61.5t-167.5 173.5v-592q0 -16 -11.5 -28.5t-29.5 -12.5 q-16 0 -28.5 12.5t-12.5 28.5zM244 512q0 -129 50 -230.5t141 -158.5t206 -57q113 0 203 57t142 159.5t52 229.5t-52 228.5t-142 158.5t-203 57q-115 0 -206 -56t-141 -157.5t-50 -230.5z" />
<glyph unicode="&#xff;" horiz-adv-x="1150" d="M170 375v639q0 16 11.5 28.5t29.5 12.5t29.5 -12.5t11.5 -28.5v-639q0 -317 283 -318q88 0 173 46.5t138 120t53 151.5v639q0 16 11.5 28.5t29.5 12.5t29.5 -12.5t11.5 -28.5v-914q0 -154 -62.5 -269.5t-172 -178t-248.5 -62.5q-90 0 -165 21.5t-126 56.5q-37 25 -23 56 q14 25 35 24q10 0 19 -6q49 -31 117.5 -54.5t146.5 -23.5q117 0 207 55.5t140 154.5t50 226v93q-47 -92 -150.5 -152.5t-213.5 -60.5q-184 0 -274.5 105t-90.5 290zM314 1280v16q0 33 20.5 53.5t52.5 20.5q29 0 48.5 -20.5t19.5 -53.5v-16q0 -33 -19.5 -53.5t-50.5 -20.5 q-33 0 -52 20.5t-19 53.5zM647 1280v16q0 33 20.5 53.5t53.5 20.5q29 0 48.5 -20.5t19.5 -53.5v-16q0 -33 -19.5 -53.5t-50.5 -20.5q-33 0 -52.5 20.5t-19.5 53.5z" />
<glyph unicode="&#x131;" horiz-adv-x="421" d="M170 41v973q0 16 12.5 28.5t28.5 12.5q18 0 29.5 -12.5t11.5 -28.5v-973q0 -16 -12.5 -28.5t-28.5 -12.5q-18 0 -29.5 12.5t-11.5 28.5z" />
<glyph unicode="&#x152;" horiz-adv-x="2043" d="M102 717q0 195 64.5 357.5t199 261t330.5 98.5h1205q16 0 28.5 -12.5t12.5 -28.5q0 -18 -12.5 -29.5t-28.5 -11.5h-711v-561h618q16 0 28.5 -12.5t12.5 -28.5q0 -18 -12 -29.5t-29 -11.5h-618v-627h711q16 0 28.5 -12.5t12.5 -28.5q0 -18 -12.5 -29.5t-28.5 -11.5h-1205 q-199 0 -332 95t-197.5 257t-64.5 365zM184 717q0 -283 132.5 -459t400.5 -176h389v1270h-389q-180 0 -299 -86t-176.5 -230.5t-57.5 -318.5z" />
<glyph unicode="&#x153;" horiz-adv-x="2050" d="M98 516q0 152 66.5 274.5t181.5 193.5t258 71q158 0 281 -85t180 -229q55 147 171 230.5t253 83.5q121 0 224.5 -52.5t169 -157t69.5 -257.5q0 -16 -12.5 -29.5t-28.5 -13.5h-803v-29v-35q8 -119 61.5 -215t150.5 -152.5t230 -56.5q98 0 185.5 48.5t136.5 121.5 q16 18 35 19q14 0 24.5 -11.5t10.5 -25.5t-9 -25q-68 -90 -168 -147t-215 -57q-172 0 -300 82.5t-185 228.5q-57 -141 -180 -226t-281 -85q-141 0 -257 70.5t-182.5 193.5t-66.5 272zM180 516q0 -129 55.5 -233.5t152.5 -165t216 -60.5q121 0 217.5 59.5t150.5 165t54 234.5 q0 131 -54 235.5t-150.5 165t-217.5 60.5q-119 0 -216 -60.5t-152.5 -165t-55.5 -235.5zM1114 623h754v18q-10 104 -66.5 179t-139.5 114t-173 39q-76 0 -155 -40t-139 -119t-81 -191z" />
<glyph unicode="&#x178;" horiz-adv-x="1120" d="M41 1403q0 14 13.5 26.5t29.5 12.5q23 0 35 -19l442 -604l443 604q12 18 34 19q18 0 29.5 -13.5t11.5 -25.5q0 -11 -8 -27l-467 -635v-700q0 -16 -12 -28.5t-31 -12.5q-18 0 -30.5 12.5t-12.5 28.5v692l-469 643q-8 10 -8 27zM323 1671v17q0 33 20.5 53t53.5 20 q29 0 48.5 -20.5t19.5 -52.5v-17q0 -33 -19.5 -53.5t-50.5 -20.5q-33 0 -52.5 20.5t-19.5 53.5zM657 1671v17q0 33 20.5 53t53.5 20q29 0 48.5 -20.5t19.5 -52.5v-17q0 -33 -19.5 -53.5t-50.5 -20.5q-33 0 -52.5 20.5t-19.5 53.5z" />
<glyph unicode="&#x192;" horiz-adv-x="1228" d="M29 -143q0 37 41 37q10 0 34.5 -8.5t36.5 -8.5q102 0 165 57.5t79 155.5l117 678l-176 2q-18 0 -30.5 11.5t-12.5 27.5q0 18 12 29.5t31 11.5l190 -2l33 192q23 145 104.5 227.5t223.5 82.5q49 0 84 -7q36 -7 36 -36q0 -37 -41 -37q-10 0 -25.5 2t-37.5 2 q-111 0 -173.5 -56.5t-78.5 -156.5l-37 -215l238 -4q18 0 30.5 -11.5t12.5 -29.5q0 -16 -12.5 -27.5t-30.5 -11.5l-252 4l-111 -653q-55 -309 -338 -310q-113 0 -112 54z" />
<glyph unicode="&#x2c6;" horiz-adv-x="679" d="M102 1208q0 12 13 25l166 176q16 25 49 25h20q33 0 49 -25l166 -174q13 -13 13 -25q0 -10 -7.5 -17t-17.5 -7q-14 0 -39 20l-180 140l-168 -142q-25 -20 -39 -20q-10 0 -17.5 7t-7.5 17z" />
<glyph unicode="&#x2c7;" horiz-adv-x="679" d="M102 1458q0 10 7.5 17.5t17.5 7.5q14 0 39 -21l180 -139l168 141q25 20 39 21q10 0 17.5 -7.5t7.5 -17.5q0 -12 -13 -24l-166 -176q-16 -25 -49 -25h-20q-33 0 -49 25l-166 174q-12 12 -13 24z" />
<glyph unicode="&#x2d8;" horiz-adv-x="700" d="M102 1352q0 14 11.5 25.5t27.5 11.5q39 0 43 -41q8 -86 55.5 -135.5t110.5 -49.5t109.5 50.5t56.5 134.5q6 41 43 41q16 0 27.5 -11.5t11.5 -25.5q0 -68 -34 -129.5t-90 -99.5t-124 -38q-67 0 -123.5 38t-90.5 99.5t-34 129.5z" />
<glyph unicode="&#x2d9;" horiz-adv-x="468" d="M164 1303v16q0 33 20.5 53.5t53.5 20.5q29 0 48 -20.5t19 -53.5v-16q0 -33 -19.5 -53.5t-49.5 -20.5q-33 0 -52.5 20.5t-19.5 53.5z" />
<glyph unicode="&#x2da;" horiz-adv-x="729" d="M164 1421q0 80 60.5 136.5t140.5 56.5t140 -56.5t60 -136.5t-60.5 -136t-139.5 -56q-80 0 -140.5 56t-60.5 136zM238 1421q0 -51 37.5 -89t89.5 -38q53 0 90 38t37 89q0 53 -37 90t-90 37q-51 0 -89 -36.5t-38 -90.5z" />
<glyph unicode="&#x2db;" horiz-adv-x="489" d="M102 -190q0 88 51.5 144t125.5 81l102 4q10 -8 10 -21q0 -16 -22 -16q-41 2 -86 -22.5t-74 -66.5t-29 -87q0 -59 34 -94t79 -35q27 0 35 4q20 10 32 10t19.5 -8t7.5 -20q0 -25 -30.5 -43.5t-73.5 -18.5q-72 0 -126.5 53.5t-54.5 135.5z" />
<glyph unicode="&#x2dc;" horiz-adv-x="915" d="M166 1233q0 35 18.5 74t57.5 66.5t94 27.5q31 0 65.5 -15.5t83.5 -46.5q43 -25 71 -38t50 -13q61 0 74 88q2 16 12 26.5t27 10.5q12 0 23.5 -7t11.5 -20q0 -78 -44 -127t-120 -49q-27 0 -59.5 14.5t-77.5 43.5q-10 6 -39 21.5t-49.5 22.5t-36.5 7q-66 0 -90 -86 q-8 -29 -39 -29q-33 0 -33 29z" />
<glyph unicode="&#x2dd;" horiz-adv-x="751" d="M102 1241q0 10 11 27l127 190q18 33 53 33q23 0 38 -13.5t15 -37.5q0 -16 -14 -35l-154 -158q-31 -31 -53 -30q-10 0 -16.5 7t-6.5 17zM406 1241q0 10 10 27l127 190q18 33 53 33q23 0 38 -13.5t15 -37.5q0 -16 -14 -35l-154 -158q-31 -31 -53 -30q-10 0 -16 7t-6 17z " />
<glyph unicode="&#x3c0;" horiz-adv-x="1267" d="M92 1014q0 18 12.5 29.5t28.5 11.5h1002q16 0 28.5 -11.5t12.5 -29.5t-12.5 -29.5t-28.5 -11.5h-123q-10 0 -11 -10v-922q0 -16 -11 -28.5t-29 -12.5t-29.5 12.5t-11.5 28.5v922q0 10 -11 10h-553q-10 0 -10 -10v-922q0 -16 -11 -28.5t-30 -12.5q-18 0 -29.5 12.5 t-11.5 28.5v922q0 10 -10 10h-121q-16 0 -28.5 11t-12.5 30z" />
<glyph unicode="&#x2000;" horiz-adv-x="911" />
<glyph unicode="&#x2001;" horiz-adv-x="1822" />
<glyph unicode="&#x2002;" horiz-adv-x="911" />
<glyph unicode="&#x2003;" horiz-adv-x="1822" />
<glyph unicode="&#x2004;" horiz-adv-x="607" />
<glyph unicode="&#x2005;" horiz-adv-x="455" />
<glyph unicode="&#x2006;" horiz-adv-x="303" />
<glyph unicode="&#x2007;" horiz-adv-x="303" />
<glyph unicode="&#x2008;" horiz-adv-x="227" />
<glyph unicode="&#x2009;" horiz-adv-x="364" />
<glyph unicode="&#x200a;" horiz-adv-x="101" />
<glyph unicode="&#x2010;" horiz-adv-x="794" d="M123 504q0 16 11 27.5t28 11.5h471q16 0 27.5 -12.5t11.5 -30.5q0 -16 -11.5 -27.5t-27.5 -11.5h-471q-17 0 -28 12t-11 31z" />
<glyph unicode="&#x2011;" horiz-adv-x="794" d="M123 504q0 16 11 27.5t28 11.5h471q16 0 27.5 -12.5t11.5 -30.5q0 -16 -11.5 -27.5t-27.5 -11.5h-471q-17 0 -28 12t-11 31z" />
<glyph unicode="&#x2012;" horiz-adv-x="794" d="M123 504q0 16 11 27.5t28 11.5h471q16 0 27.5 -12.5t11.5 -30.5q0 -16 -11.5 -27.5t-27.5 -11.5h-471q-17 0 -28 12t-11 31z" />
<glyph unicode="&#x2013;" horiz-adv-x="1040" d="M123 506q0 18 12 28.5t31 10.5h708q18 0 31 -10.5t13 -28.5t-12.5 -28.5t-31.5 -10.5h-708q-19 0 -31 10t-12 29z" />
<glyph unicode="&#x2014;" horiz-adv-x="1683" d="M123 510q0 20 12 32.5t31 12.5h1352q18 0 30.5 -12.5t12.5 -32.5q0 -18 -12.5 -30.5t-30.5 -12.5h-1352q-19 0 -31 12.5t-12 30.5z" />
<glyph unicode="&#x2018;" horiz-adv-x="342" d="M63 1217q0 61 28 115t70 86t79 32q14 0 25 -8t11 -25q0 -18 -8 -24.5t-29.5 -12.5t-33.5 -12q-29 -14 -44.5 -45t-15.5 -63q0 -49 35 -50q31 0 53 19q16 -20 17 -41q0 -27 -27.5 -47.5t-62.5 -20.5q-43 0 -70 27t-27 70z" />
<glyph unicode="&#x2019;" horiz-adv-x="342" d="M63 1153q0 18 8.5 24.5t30 12.5t33.5 12q29 14 44.5 45t15.5 64q0 49 -35 49q-31 0 -54 -19q-16 20 -16 41q0 27 27.5 47.5t62.5 20.5q43 0 69.5 -26.5t26.5 -69.5q0 -62 -27.5 -116t-69.5 -86t-79 -32q-14 0 -25.5 8.5t-11.5 24.5z" />
<glyph unicode="&#x201a;" horiz-adv-x="356" d="M71 -199q0 18 8.5 24.5t30 12.5t33.5 12q29 14 44.5 45t15.5 64q0 49 -35 49q-31 0 -54 -18q-16 20 -16 41q0 27 27.5 47t62.5 20q43 0 69.5 -26.5t26.5 -69.5q0 -61 -27.5 -115.5t-69.5 -86t-79 -31.5q-14 0 -25.5 8t-11.5 24z" />
<glyph unicode="&#x201c;" horiz-adv-x="643" d="M63 1217q0 61 28 115t70 86t79 32q14 0 25 -8t11 -25q0 -18 -8 -24.5t-29.5 -12.5t-33.5 -12q-29 -14 -44.5 -45t-15.5 -63q0 -49 35 -50q31 0 53 19q16 -20 17 -41q0 -27 -27.5 -47.5t-62.5 -20.5q-43 0 -70 27t-27 70zM350 1217q0 61 28 115t70 86t79 32q14 0 25 -8 t11 -25q0 -18 -8 -24.5t-29.5 -12.5t-33.5 -12q-29 -14 -44.5 -45t-15.5 -63q0 -49 35 -50q31 0 53 19q16 -20 17 -41q0 -27 -27.5 -47.5t-62.5 -20.5q-43 0 -70 27t-27 70z" />
<glyph unicode="&#x201d;" horiz-adv-x="643" d="M63 1153q0 18 8.5 24.5t30 12.5t33.5 12q29 14 44.5 45t15.5 64q0 49 -35 49q-31 0 -54 -19q-16 20 -16 41q0 27 27.5 47.5t62.5 20.5q43 0 69.5 -26.5t26.5 -69.5q0 -62 -27.5 -116t-69.5 -86t-79 -32q-14 0 -25.5 8.5t-11.5 24.5zM350 1153q0 18 8.5 24.5t30 12.5 t33.5 12q29 14 44 45t15 64q0 49 -35 49q-31 0 -53 -19q-16 20 -16 41q0 27 27.5 47.5t62.5 20.5q43 0 69.5 -26.5t26.5 -69.5q0 -62 -27.5 -116t-69.5 -86t-79 -32q-14 0 -25.5 8.5t-11.5 24.5z" />
<glyph unicode="&#x201e;" horiz-adv-x="563" d="M63 -199q0 18 8.5 24.5t30 12.5t33.5 12q29 14 44.5 45t15.5 64q0 49 -35 49q-31 0 -54 -18q-16 20 -16 41q0 27 27.5 47t62.5 20q43 0 69.5 -26.5t26.5 -69.5q0 -61 -27.5 -115.5t-69.5 -86t-79 -31.5q-14 0 -25.5 8t-11.5 24zM309 -199q0 18 8.5 24.5t30 12.5t33.5 12 q29 14 44.5 45t15.5 64q0 49 -35 49q-31 0 -54 -18q-16 20 -16 41q0 27 27.5 47t62.5 20q43 0 69.5 -26.5t26.5 -69.5q0 -61 -27.5 -115.5t-69.5 -86t-79 -31.5q-14 0 -25.5 8t-11.5 24z" />
<glyph unicode="&#x2020;" horiz-adv-x="786" d="M102 1075q0 20 11.5 30.5t29.5 10.5h209v281q0 37 41 37t41 -37v-281h209q19 0 30 -11t11 -30q0 -20 -11 -30.5t-30 -10.5h-209v-628v-5q0 -14 -11 -23t-30 -9q-20 0 -31.5 10t-9.5 27v628h-209q-18 0 -29.5 11.5t-11.5 29.5z" />
<glyph unicode="&#x2021;" horiz-adv-x="786" d="M102 768q0 20 11.5 30.5t29.5 10.5h209v225h-209q-18 0 -29.5 11.5t-11.5 29.5q0 20 11.5 30.5t29.5 10.5h209v281q0 37 41 37t41 -37v-281h209q18 0 29.5 -11t11.5 -30q0 -20 -11 -30.5t-30 -10.5h-209v-225h209q19 0 30 -11.5t11 -29.5q0 -20 -11 -30.5t-30 -10.5h-209 v-321v-5q0 -14 -11 -23t-30 -9q-20 0 -31.5 10t-9.5 27v321h-209q-18 0 -29.5 11.5t-11.5 29.5z" />
<glyph unicode="&#x2022;" horiz-adv-x="696" d="M94 721q0 68 35 126t93.5 93t125.5 35q68 0 126 -35t93 -93.5t35 -125.5q0 -68 -35 -126t-93 -93t-126 -35q-67 0 -125.5 35t-93.5 93t-35 126z" />
<glyph unicode="&#x2026;" horiz-adv-x="1099" d="M102 63v48q0 29 14.5 46t41.5 17h8q27 0 41 -17.5t14 -45.5v-48q0 -29 -14 -46t-41 -17h-8q-27 0 -41.5 17.5t-14.5 45.5zM479 63v48q0 29 14.5 46t41.5 17h8q27 0 41 -17.5t14 -45.5v-48q0 -29 -14 -46t-41 -17h-8q-27 0 -41.5 17.5t-14.5 45.5zM878 63v48q0 29 14.5 46 t41.5 17h8q27 0 41 -17.5t14 -45.5v-48q0 -29 -14 -46t-41 -17h-8q-27 0 -41.5 17.5t-14.5 45.5z" />
<glyph unicode="&#x202f;" horiz-adv-x="364" />
<glyph unicode="&#x2030;" horiz-adv-x="2211" d="M102 1079q0 160 68 265.5t197 105.5q127 0 194.5 -105.5t67.5 -261.5t-68.5 -261t-198.5 -105q-126 0 -193 104.5t-67 257.5zM188 1083q0 -129 46.5 -206.5t132.5 -77.5q90 0 133 76.5t43 203.5q0 131 -47 210t-134 79q-90 0 -132 -78t-42 -207zM276 33q0 12 7 24 l897 1364q12 18 32 19q18 0 29.5 -10.5t11.5 -28.5q0 -12 -6 -25l-897 -1364q-12 -18 -33 -18q-18 0 -29.5 10t-11.5 29zM932 346q0 158 68.5 264.5t197.5 106.5q127 0 194.5 -105.5t67.5 -261.5t-68.5 -261t-197.5 -105q-127 0 -194.5 104.5t-67.5 257.5zM1018 350 q0 -129 47 -206.5t133 -77.5q90 0 133 76.5t43 203.5q0 131 -47 210t-133 79q-90 0 -133 -79t-43 -206zM1581 346q0 158 68.5 264.5t197.5 106.5q127 0 194.5 -105.5t67.5 -261.5t-68.5 -261t-197.5 -105q-127 0 -194.5 104.5t-67.5 257.5zM1667 350q0 -129 47 -206.5 t133 -77.5q90 0 133 76.5t43 203.5q0 131 -47 210t-133 79q-90 0 -133 -79t-43 -206z" />
<glyph unicode="&#x2039;" horiz-adv-x="559" d="M94 524q0 18 12 33l275 367q16 20 37 20q18 0 30.5 -10t12.5 -29q0 -18 -15 -33l-256 -350l256 -344q14 -18 15 -31q0 -23 -14.5 -34t-30.5 -11q-18 0 -35 19l-275 366q-12 16 -12 37z" />
<glyph unicode="&#x203a;" horiz-adv-x="559" d="M94 141q0 18 15 33l256 350l-256 344q-14 18 -15 31q0 23 14.5 34t30.5 11q20 0 35 -18l275 -367q12 -14 12 -37q0 -16 -12 -33l-275 -366q-16 -20 -37 -21q-18 0 -30.5 10.5t-12.5 28.5z" />
<glyph unicode="&#x2044;" horiz-adv-x="1079" d="M51 33q0 12 6 24l897 1364q12 18 33 19q18 0 29.5 -10.5t11.5 -28.5q0 -12 -6 -25l-897 -1364q-12 -18 -33 -18q-18 0 -29.5 10t-11.5 29z" />
<glyph unicode="&#x205f;" horiz-adv-x="455" />
<glyph unicode="&#x20ac;" horiz-adv-x="1402" d="M51 543q0 18 12.5 29.5t30.5 11.5l148 -2q-10 72 -11 135q0 35 2 51l-139 2q-18 0 -30.5 11.5t-12.5 27.5q0 18 12.5 29.5t30.5 11.5l148 -2q27 176 121 314t235 215t307 77q111 0 217.5 -37t190.5 -102q18 -14 18 -33q0 -16 -8 -27q-12 -16 -31 -16q-8 0 -24 8 q-170 129 -363 129q-143 0 -267 -66.5t-207 -186t-107 -275.5l456 -6q18 0 30.5 -11.5t12.5 -29.5q0 -16 -12 -27.5t-31 -11.5l-465 6q-2 -16 -2 -51q0 -70 13 -135l454 -7q18 0 30.5 -11t12.5 -29q0 -16 -12 -27.5t-31 -11.5l-436 6q57 -203 211 -324t350 -121 q193 0 361 127q10 8 24 9q20 0 33 -17q8 -10 8 -24q0 -20 -16 -33q-74 -57 -188.5 -98t-221.5 -41q-152 0 -284 65.5t-227 184t-136 272.5l-164 2q-18 0 -30.5 11t-12.5 28z" />
<glyph unicode="&#x2122;" horiz-adv-x="1710" d="M102 1397q0 16 12.5 26.5t28.5 10.5h482q16 0 28.5 -10.5t12.5 -26.5q0 -14 -12.5 -25.5t-28.5 -11.5h-211v-602q0 -16 -11.5 -28.5t-27.5 -12.5q-18 0 -28.5 11t-10.5 30v602h-193q-16 0 -28.5 11t-12.5 26zM811 737v656q0 14 11.5 27.5t27.5 13.5q27 0 39 -19l258 -454 l283 454q16 23 38 19q17 -2 27 -13.5t10 -27.5v-656q0 -16 -12 -28.5t-29 -12.5q-18 0 -29.5 12.5t-11.5 28.5v533l-247 -414q-8 -16 -29 -16q-23 0 -33 16l-225 410v-529q-2 -18 -12.5 -29.5t-26.5 -11.5q-18 0 -28.5 11.5t-10.5 29.5z" />
<glyph unicode="&#x2202;" horiz-adv-x="1148" d="M98 535q0 141 63.5 259.5t172 187.5t239.5 69q111 0 197 -52.5t145 -138.5q-63 209 -197 347.5t-343 183.5q-33 8 -33 39q0 20 13.5 30t37.5 4q234 -49 381.5 -203.5t212 -341t64.5 -335.5q0 -168 -63.5 -301t-173 -209t-241.5 -76q-129 0 -238.5 72.5t-173 196.5 t-63.5 268zM180 535q0 -121 53.5 -226.5t144.5 -169t195 -63.5q105 0 196 63.5t144.5 169t53.5 226.5q0 113 -53.5 214t-143.5 162.5t-197 61.5q-109 0 -198.5 -58.5t-142 -159t-52.5 -220.5z" />
<glyph unicode="&#x2206;" horiz-adv-x="1396" d="M51 41q0 6 4 18l604 1358q6 10 17.5 17.5t21.5 7.5q25 0 39 -25l604 -1358q5 -12 5 -18q0 -23 -25 -37q-8 -4 -23 -4h-1200q-14 0 -22 4q-25 12 -25 37zM162 94q-2 -12 8 -12h1057q12 0 8 12l-530 1190q-2 6 -6.5 6t-6.5 -6z" />
<glyph unicode="&#x220f;" horiz-adv-x="1304" d="M72 1395q0 18 12 28.5t31 10.5h1073q20 0 32.5 -12.5t12.5 -30.5q0 -16 -12.5 -27.5t-30.5 -11.5h-100v-1717q0 -20 -12.5 -32.5t-33.5 -12.5q-18 0 -29 12.5t-11 32.5v1717h-701v-1717q0 -20 -12 -32.5t-31 -12.5q-18 0 -30.5 12.5t-12.5 32.5v1717h-102q-18 0 -30.5 11 t-12.5 32z" />
<glyph unicode="&#x2211;" horiz-adv-x="1062" d="M102 61q0 23 19 45l545 619l-545 602q-18 23 -19 45q0 25 18.5 43.5t49.5 18.5h750q16 0 28.5 -12.5t12.5 -28.5q0 -18 -12.5 -29.5t-28.5 -11.5h-699l529 -600q12 -14 12 -31q0 -14 -12 -31l-545 -608h715q16 0 28.5 -11.5t12.5 -29.5q0 -16 -12.5 -28.5t-28.5 -12.5 h-750q-31 0 -49.5 18.5t-18.5 42.5z" />
<glyph unicode="&#x221a;" horiz-adv-x="1234" d="M72 729q0 25 28 43l213 127q14 8 29 8q18 0 32.5 -9t20.5 -28l279 -735l364 1229q6 16 19.5 25.5t27.5 9.5q23 0 35.5 -13.5t12.5 -27.5q0 -16 -5 -29l-383 -1268q-20 -61 -69 -61q-47 0 -68 55l-282 752l-185 -102q-18 -10 -32 -11q-18 0 -27.5 10.5t-9.5 24.5z" />
<glyph unicode="&#x221e;" horiz-adv-x="1804" d="M92 496q0 129 47 219t122 135t157 45q94 0 170 -42t160 -130l155 -162l154 162q84 88 159.5 130t169.5 42q82 0 157 -45t122 -135t47 -219q0 -131 -43 -221.5t-114.5 -134.5t-157.5 -44q-156 0 -279 129l-215 228l-217 -228q-123 -129 -278 -129q-86 0 -158 44 t-115 134.5t-43 221.5zM174 496q0 -158 72.5 -241t179.5 -83q63 0 116.5 34t106.5 89l201 211l-168 178q-47 49 -115.5 92t-146.5 43q-55 0 -112.5 -37t-95.5 -109.5t-38 -176.5zM954 506l201 -211q53 -55 106.5 -89t116.5 -34q107 0 179.5 83t72.5 241q0 104 -38 176.5 t-95 109.5t-113 37q-78 0 -146.5 -43t-115.5 -92z" />
<glyph unicode="&#x222b;" horiz-adv-x="989" d="M0 -51q0 18 11.5 28.5t29.5 10.5q10 0 34.5 -4t37.5 -4q102 0 163.5 57t79.5 156l164 950q27 145 107 227t221 82q63 0 91 -7t28 -36q0 -37 -37 -37q-12 0 -27.5 2t-38.5 2q-109 0 -171 -56t-81 -157l-161 -948q-55 -309 -338 -309q-54 0 -83.5 9t-29.5 34z" />
<glyph unicode="&#x2248;" horiz-adv-x="1038" d="M102 250q0 35 18.5 73.5t57.5 66.5t94 28q53 0 112.5 -14.5t160.5 -45.5q90 -27 143 -40t100 -13q61 0 74 88q2 16 12.5 26.5t26.5 10.5q12 0 23.5 -7t11.5 -20q0 -78 -44 -127t-120 -49q-51 0 -107.5 13.5t-152.5 42.5q-94 29 -147.5 41t-100.5 12q-66 0 -90 -86 q-8 -29 -39 -29q-33 0 -33 29zM102 575q0 35 18.5 74t57.5 66.5t94 27.5q53 0 112.5 -14t160.5 -45q90 -27 143 -40t100 -13q61 0 74 88q2 16 12.5 26.5t26.5 10.5q12 0 23.5 -7.5t11.5 -19.5q0 -78 -44 -127t-120 -49q-51 0 -107.5 13.5t-152.5 41.5q-94 29 -147.5 41.5 t-100.5 12.5q-66 0 -90 -87q-8 -29 -39 -28q-33 0 -33 28z" />
<glyph unicode="&#x2260;" horiz-adv-x="892" d="M102 285q0 16 12.5 27.5t30.5 11.5h144l151 284h-295q-18 0 -30.5 12.5t-12.5 30.5q0 16 12.5 27.5t30.5 11.5h338l101 189q12 18 32 18q18 0 29.5 -10t11.5 -29q0 -12 -6 -24l-76 -144h173q18 0 30.5 -12t12.5 -31q0 -16 -12.5 -27.5t-30.5 -11.5h-216l-151 -284h367 q18 0 30.5 -12.5t12.5 -30.5q0 -16 -12.5 -27.5t-30.5 -11.5h-410l-123 -232q-12 -18 -33 -18q-18 0 -29.5 10t-11.5 29q0 12 6 24l99 187h-101q-18 0 -30.5 12t-12.5 31z" />
<glyph unicode="&#x2264;" horiz-adv-x="1175" d="M98 590q0 23 9.5 37t33.5 26l838 334q27 10 37 10q16 0 27.5 -11t11.5 -28q0 -20 -10.5 -31.5t-38.5 -21.5l-809 -315l819 -316q33 -16 33 -49q0 -16 -13.5 -27.5t-31.5 -9.5q-6 0 -33 11l-821 327q-27 14 -39.5 28.5t-12.5 35.5zM141 43q0 18 12.5 28.5t30.5 10.5h822 q20 0 32.5 -12.5t12.5 -30.5q0 -16 -12.5 -27.5t-30.5 -11.5h-824q-18 0 -30.5 11.5t-12.5 31.5z" />
<glyph unicode="&#x2265;" horiz-adv-x="1175" d="M98 250q0 20 10.5 31.5t38.5 21.5l809 315l-819 316q-33 16 -33 49q0 16 13.5 27.5t32.5 9.5q8 0 32 -10l822 -328q26 -14 38.5 -28.5t12.5 -35.5q0 -23 -9.5 -37t-33.5 -26l-838 -334q-25 -10 -37 -10q-16 0 -27.5 11t-11.5 28zM102 43q0 16 12.5 27.5t30.5 11.5h824 q18 0 30.5 -11.5t12.5 -31.5q0 -18 -12.5 -28.5t-30.5 -10.5h-822q-20 0 -32.5 12.5t-12.5 30.5z" />
<glyph unicode="&#x25ca;" horiz-adv-x="1124" d="M102 639q0 27 19 51l379 508q25 31 63 31q37 0 62 -31l381 -508q16 -23 16 -51q0 -27 -14 -49l-383 -555q-25 -35 -66 -35q-34 0 -59 35l-381 555q-16 27 -17 49zM197 631l360 -508q8 -8 16 0l359 508q6 8 0 14l-359 461q-8 6 -16 0l-360 -461q-6 -6 0 -14z" />
<glyph unicode="&#x25fc;" horiz-adv-x="1044" d="M0 0v1044h1044v-1044h-1044z" />
</font>
</defs>
</svg>
